<svg id="Layer_2" data-name="Layer 2" xmlns="http://www.w3.org/2000/svg" viewBox="0 0 850.31 836"><path d="M974.16,107C739.35,107,549,297.35,549,532.16A425.74,425.74,0,0,0,798,919.21c23,10.48,46,18.74,71.69,16.4,5.41-.5,11.06-1.52,15.28-4.94,9.15-7.44,2.88-17.2-4-23.31-19.64-17.54-43.32-31.29-66.64-43.32a412.29,412.29,0,0,1-40.61-23.92,388.58,388.58,0,0,1-69.66-59.46,367.63,367.63,0,0,1-52.44-73,361.17,361.17,0,0,1-33-84.17A376.12,376.12,0,0,1,607.24,531c0-203.28,164.8-368.08,368.08-368.08S1343.4,327.71,1343.4,531A368.29,368.29,0,0,1,1169,844c-12,7.43-24.61,13.56-36.9,20.33-5.35,2.95-11.51,4.66-17.36,6.29a201,201,0,0,1-20.64,5.06,67.8,67.8,0,0,1-42.26-6.66,49.82,49.82,0,0,1-16.45-13.31c-3.12-4-9-13.53-7.19-19,.75-2.35,5-3.1,7.34-3.91,5.6-2,12.14-3.2,17.35-6a2.92,2.92,0,0,0-.72.06c-12.3,2.23-32,14.09-44.26,16.31-27.8,5-42.1,2-69.89,7-9.37,1.69-34.9-8.68-44.27-7,0,0,25.71,30.35,41.94,46.59-.07,0,9.39,9.33,9.32,9.32,12.68,13.78,44.76,33,74.54,39.61,41.94,9.32,73.82.79,76.88,0,181.75-47,302.85-211.67,302.85-406.52C1399.31,297.35,1209,107,974.16,107Z" transform="translate(-549 -107)"/><path d="M1138.46,521.88l-.36-1c11.86,40.87,16.15,68.34,16.15,68.34,8.12,54-7.55,101.84-7.55,101.84A226.42,226.42,0,0,1,1127,751.45a164.29,164.29,0,0,1-23.39,35.16c-2.56,2.89-5.23,5.68-8.06,8.31-2.53,2.36-4.66,5.09-7.18,7.47-4.18,3.93-9.16,6.8-13.36,10.59a88.88,88.88,0,0,1-12,8.52,163.48,163.48,0,0,1-25.64,13.21,220.45,220.45,0,0,1-53,14,299.18,299.18,0,0,1-46.24,2.83,283.51,283.51,0,0,1-28.53-1.76,23.68,23.68,0,0,1-4.2-.55c-72.82-22-107.2-82.44-107.2-82.44-36.33-55.84-35-128.5-35-128.5-.54-76,20.53-114.22,20.53-114.22C861,549.59,893,507.84,890.5,489.83a134.07,134.07,0,0,1-46.42,15.47c-11.58,1.59-31.76,4.12-55.26-4.42-8.09-2.94-25.24-9.42-39.79-26.53-14.94-17.55-18.46-36.1-19.9-44.21a93.28,93.28,0,0,1,31-88.42c24.13-21.18,51.16-23.66,59.68-24.31,13-1,27.45,1.82,34.58,3.4V323c2.33-7.36,5.85-15.12,11-26.53a217.64,217.64,0,0,1,24.32-42c9.67-13,18.79-25.19,35.37-35.36,7.55-4.64,20.25-9,33.93-9.63,11.16-.49,16.79,1.26,21.33,3,11.92,4.55,19.48,11.29,26.52,17.69,7.38,6.7,11.86,12.4,17.69,19.89A258.16,258.16,0,0,1,1064.34,323v-2.21a122.56,122.56,0,0,1,33.15-2.21c8.53.65,35.56,3.13,59.69,24.31a93.24,93.24,0,0,1,30.94,88.42c-1.43,8.11-4.95,26.66-19.89,44.21-14.55,17.11-31.7,23.59-39.79,26.53-23.5,8.54-43.68,6-55.26,4.42-20-2.75-38-10.71-48.63-16.58C1021.38,508.73,1064.34,554,1138.46,521.88Z" transform="translate(-549 -107)"/></svg>