<svg id="Layer_1" data-name="Layer 1" xmlns="http://www.w3.org/2000/svg" viewBox="0 0 878.87 955.96"><path d="M363.16,463.34c-11.94-.22-34.94-1-59.79-16.31-6.34-3.91-45.74-29.1-54.36-78.82a117.35,117.35,0,0,1,51.64-116.86c39.17-25.39,79.79-17.78,87-16.31a115.75,115.75,0,0,1,57.07,29.9c33.71,32.66,35.22,75.12,35.33,84.25l40.16-.38V208.24s-90.29-160-312.54-182.09v489.5s72.78.59,154.91,38Z" transform="translate(-99.13 -26)"/><path d="M670.27,240.48c-10.67,4.27-26.43,13.59-40.77,29.89-27.31,31.05-29.63,67.2-29.9,78.82l-38.65-1V208.09C679.93,28.94,873.5,26,873.5,26V515.5c-87.58,3.25-159,39.87-159,39.87l2-92c10.36-.19,43.66-2.09,73.38-27.18,4.54-3.84,40.59-35.32,40.77-87,.12-37.67-18.91-63.39-24.46-70.66-8.83-11.57-27.08-31.07-57.08-40.77C710.72,225.36,678.48,237.18,670.27,240.48Z" transform="translate(-99.13 -26)"/><path d="M547.43,605.13,572,567.32a3.09,3.09,0,0,0-2.59-4.78h-49.2a3.09,3.09,0,0,0-2.59,4.78l24.59,37.81A3.1,3.1,0,0,0,547.43,605.13Z" transform="translate(-99.13 -26)"/><path d="M102.55,171.1s14.8-11.4,42.58-17.21V534.8c.6,1.92-5.39,31,25.06,34.53,0,0,153.71-7.4,260.31,114.52,0,0-134.68-67.86-327.95-15.09Z" transform="translate(-99.13 -26)"/><path d="M977.52,171.8s-14.8-11.4-42.58-17.21V535.5c-.61,1.92,5.39,31-25.07,34.53,0,0-153.7-7.4-260.3,114.53,0,0,134.68-67.87,327.95-15.1Z" transform="translate(-99.13 -26)"/><path d="M232.62,957.11c-14.53-78.87-18.51-160-18.77-240.9,0-5.83-19.53-8.93-21.3-3.06-8.8,29.15-18.53,68.34-27.8,102.51l-41.23-93c-4.74-10.69-19.31-5.66-20.21,5.81a1389.71,1389.71,0,0,0,2.2,240.85c.68,7.08,5.31,11.51,10.84,11.51,4.48,0,11.53-4.39,10.85-11.51a1389.82,1389.82,0,0,1-5-195.73L157.86,854c4.06,9.16,17.23,6.77,19.82-2.75,5.17-19.09,11.73-52.86,16.91-72-1.08,54.87,5.92,132.21,18.43,187.25C218.44,990.37,237.42,983.18,232.62,957.11Z" transform="translate(-99.13 -26)"/><path d="M315.54,842c-5.7-1.51-11.28,1.24-13.61,7.5q-9,24.15-18,48.3-10.25-31.08-20.47-62.18c-4.1-12.45-26.36-8.85-21.64,5.48L267.12,918a10.69,10.69,0,0,0,6.71,6.79q-8,21.48-16,43c-2.32,6.21,3.79,12.12,8.38,13.33,5.7,1.51,11.29-1.24,13.62-7.5l44.13-118.29C326.24,849.11,320.13,843.2,315.54,842Z" transform="translate(-99.13 -26)"/><path d="M469.93,886.8c-8.86-21.61-26.47-36.31-44.45-45.37,12.22-5.22,23.74-13.07,30.91-26.45,11.16-20.83,2.71-45.07-10.26-59.8-14.7-16.68-34.54-25.63-54.28-30.33A110.89,110.89,0,0,0,370.73,722c-.46-6-4.12-10.25-9.29-11-4.33-.59-12.1,2.62-12.16,9.47,0,.87,0,1.74,0,2.61a127,127,0,0,0-28.12,7.45c-5,1.94-8.12,8.7-5.78,14.43a10.86,10.86,0,0,0,14.2,5.92,104.37,104.37,0,0,1,19.5-5.47l-.72,82.06c-2.92.3-5.83.66-8.73,1.13-12.5,2-11.15,19.67.1,21.87,2.79.54,5.6,1,8.41,1.38l-.72,82L344.55,932c-4.62-3.11-11.18-3.42-15.21,1.92-3.62,4.79-2.54,12.48,1.93,15.48,5.22,3.51,10.51,7,15.9,10.44,0,2.88-.05,5.76-.07,8.63-.06,6.82,3.76,11.64,9.34,12.4,4.25.57,11.8-2.52,12.13-9.12,11,5.14,22.44,8.72,34.45,9.29,20.81,1,42.48-7.68,57.57-26.7C475.37,935.66,479,909.05,469.93,886.8ZM370.6,743.9c19,.71,37.65,6.87,52.75,19.37,9.36,7.74,20.8,22.69,15.3,38.17-5.67,16-24.13,21.3-36.35,24.83a121.44,121.44,0,0,1-12.84,3,140.16,140.16,0,0,0-19.59-2.31Q370.23,785.41,370.6,743.9Zm77.1,190.7c-8.57,15.29-24.68,24.07-39.24,24.56-13.88.47-27.13-4.71-39.66-11.73l.84-94.29a144.15,144.15,0,0,0,19.3-1.56,116,116,0,0,1,15.37,4.56C420,862,435.07,871,445.42,886.63,454.4,900.23,456.4,919.08,447.7,934.6Z" transform="translate(-99.13 -26)"/><path d="M570.4,880.63c-3.86-15.34-8.8-31.84-19.85-42.18s-26.85-13.82-39.8-6.09c-3.54,2.12-5.25,4.93-5.64,7.82a34.54,34.54,0,0,0-10.23,6.52c-9.7,8.84-13.56,22.58-14.46,36.48-1.81,27.8,1.7,62,19.26,82.51,18.06,21.08,46.32,20.83,63.46-1.36C581.22,940.93,577.42,908.49,570.4,880.63ZM548.85,942.5c-5.29,12.33-16,20.8-27,12.26-14.14-11-16.5-33.39-17.46-51.59-.57-10.66-1.53-22.6,2.25-32.64,1.92-5.08,6.92-11.25,11-8.8,6.87,4.11,14.39-.43,16.89-6.58,6,6.92,10,20.73,11.67,27C551.24,900.89,556.89,923.77,548.85,942.5Z" transform="translate(-99.13 -26)"/><path d="M766,959.91,725.58,904.5l44.27-38.67c12.66-11.07-4.8-28.15-15.58-18.73l-43.48,38a10.43,10.43,0,0,0-1-.64q-.16-21.47-.35-42.92c-.06-7.38-4.7-12.53-11-13.24-5-.56-13.58,3.07-13.52,10.49q.27,34.25.56,68.5c-5.48,5.52-4,12.28.13,16.52l.36,44.33c.06,7.39,4.71,12.54,11,13.24,5,.56,13.59-3.07,13.53-10.49l-.38-46.51,36.76,50.37C755.38,986.38,776,973.6,766,959.91Z" transform="translate(-99.13 -26)"/><path d="M848.47,947.89c-11.31,9.36-25.74,9.4-36.22-2.93-7.68-9-12.7-22.93-14-37.55l18.45.66c10.57.38,22.19,2.21,31.84-5.77,11.41-9.45,13.18-29.34,7.27-45.75-4.78-13.27-13.75-22.2-23.21-26.13-21.42-8.89-42.6,9.14-51.78,38.77a93.39,93.39,0,0,0-2.53,10.21l-1.08,0c-5-.18-10.84,5.33-10.84,13.65s5.33,13,10.19,13.59c1,17.8,5.93,35.19,13.94,48.47,17.21,28.52,46.65,34.8,68.89,16.38C871.79,961.21,859.21,939,848.47,947.89Zm-27.91-92.5c4.73-.3,9.84,2.45,13.27,7.73,2.5,3.85,6.32,13.66,1.95,17-2.9,2.21-7.69,1.06-10.74,1l-15.59-.56-8.83-.32C804.24,867.38,811.41,856,820.56,855.39Z" transform="translate(-99.13 -26)"/><path d="M971.86,838.6c-2-8.38-6.16-10.48-11.72-9.62-4.67.72-11,4.75-9.89,12.93a492.06,492.06,0,0,1,4,88q-8.84-15.92-17.65-31.84l-17.17-31c-5.24-9.46-10.21-21.38-16.74-28.9-6.79-7.81-18.31-7.7-23.62,5.36-4.22,10.39-3.23,26.05-3.91,37.38l-5,84.25c-.5,8.45,3.45,14.53,8.88,15.56,4.45.84,12-3,12.53-11.52q1.78-30,3.56-60l1.74-29.16c.1-1.65.19-3.3.29-4.94l5.88,10.6q8.25,14.9,16.51,29.79l33.68,60.77c4.57,8.25,18,7.45,19.56-6.13C978,926,981.7,880.46,971.86,838.6Z" transform="translate(-99.13 -26)"/><path d="M671.25,881.35c-3.86-15.34-8.8-31.84-19.86-42.18s-26.85-13.82-39.79-6.09c-3.54,2.11-5.25,4.93-5.65,7.82a34.62,34.62,0,0,0-10.22,6.52c-9.7,8.83-13.56,22.58-14.47,36.48-1.8,27.8,1.71,62,19.27,82.51,18.06,21.07,46.31,20.83,63.46-1.37C682.06,941.65,678.27,909.21,671.25,881.35ZM649.7,943.22c-5.29,12.33-16,20.8-27,12.26-14.14-11-16.51-33.39-17.47-51.59-.56-10.66-1.53-22.6,2.26-32.64,1.92-5.09,6.92-11.25,11-8.8,6.87,4.1,14.39-.43,16.88-6.59,6.06,6.93,10,20.74,11.67,27C652.09,901.61,657.74,924.49,649.7,943.22Z" transform="translate(-99.13 -26)"/></svg>