<svg width="139" height="131" viewBox="0 0 139 131" fill="none" xmlns="http://www.w3.org/2000/svg">
<path d="M48.5295 49.8853C47.1444 49.8608 44.4739 49.7731 41.5895 48.0246C40.8523 47.5799 36.2796 44.7052 35.2766 39.0354C34.8585 36.4817 35.2023 33.8636 36.2667 31.4978C37.331 29.1321 39.0701 27.1199 41.2738 25.7047C45.8195 22.8076 50.5375 23.6767 51.3702 23.844C53.8631 24.3421 56.1609 25.525 57.9966 27.2553C61.911 30.9807 62.0855 35.8242 62.0979 36.8647L66.7619 36.8218V20.7837C66.7619 20.7837 56.2751 2.54013 30.4735 0.0163879V55.8529C30.4735 55.8529 38.9231 55.9202 48.4609 60.1884L48.5295 49.8853Z" fill="#005E79"/>
<path d="M84.1863 24.456C82.3648 25.2239 80.7461 26.3907 79.4538 27.8673C76.2828 31.407 76.0129 35.5303 75.9817 36.8564L71.4942 36.7442V20.7694C85.3077 0.334592 107.774 0 107.774 0V55.8365C97.599 56.2058 89.3155 60.3841 89.3155 60.3841L89.5439 49.8852C90.7484 49.8648 94.6129 49.6465 98.058 46.7861C98.5854 46.3475 102.77 42.7567 102.791 36.8646C102.805 32.5679 100.596 29.6341 99.9498 28.8037C98.173 26.4735 95.6628 24.7849 92.809 24.0002C89.9551 23.2154 86.9174 23.3786 84.1676 24.4642L84.1863 24.456Z" fill="#005E79"/>
<path d="M70.1633 65.701L72.4953 62.1775C72.5584 62.0822 72.5942 61.9719 72.5989 61.8583C72.6036 61.7447 72.577 61.6319 72.5219 61.5319C72.4669 61.4319 72.3854 61.3483 72.2861 61.2899C72.1867 61.2316 72.0732 61.2006 71.9575 61.2003H67.2914C67.1755 61.2002 67.0617 61.2309 66.9621 61.2891C66.8625 61.3474 66.7807 61.4309 66.7254 61.531C66.6701 61.6311 66.6433 61.744 66.6479 61.8578C66.6525 61.9716 66.6883 62.0821 66.7515 62.1775L69.0856 65.701C69.1441 65.7889 69.224 65.8612 69.3181 65.9112C69.4122 65.9613 69.5175 65.9874 69.6244 65.9874C69.7314 65.9874 69.8367 65.9613 69.9308 65.9112C70.0249 65.8612 70.1048 65.7889 70.1633 65.701Z" fill="#005E79"/>
<path d="M18.2738 16.5502C18.2738 16.5502 19.9911 15.2506 23.2182 14.5876V58.0441C23.2867 58.2644 22.5952 61.5838 26.1254 61.9837C26.1254 61.9837 43.9716 61.1411 56.3461 75.0411C56.3461 75.0411 40.7093 67.3005 18.2717 73.3191L18.2738 16.5502Z" fill="#005E79"/>
<path d="M119.858 16.6298C119.858 16.6298 118.141 15.3301 114.916 14.6671V58.1195C114.845 58.3378 115.539 61.6572 112.009 62.0571C112.009 62.0571 94.1645 61.2145 81.788 75.1145C81.788 75.1145 97.4248 67.3739 119.862 73.3925L119.858 16.6298Z" fill="#005E79"/>
<path d="M21.0227 126.356C18.735 114.486 18.1114 102.284 18.0665 90.1009C18.0665 89.2233 14.9923 88.7564 14.7136 89.6406C13.3271 94.0276 11.7922 99.9248 10.3315 105.068L3.84151 91.0713C3.09431 89.4618 0.799888 90.2191 0.659436 91.9456C-0.323255 104.014 -0.207436 116.145 1.00551 128.193C1.11787 129.258 1.84148 129.925 2.71341 129.925C3.41791 129.925 4.52917 129.263 4.42018 128.193C3.43344 118.406 3.17058 108.561 3.63365 98.7359L9.24609 110.833C9.88543 112.212 11.9596 111.853 12.3664 110.419C13.1821 107.549 14.2147 102.465 15.0305 99.5914C14.8597 107.848 15.9631 119.489 17.9327 127.771C18.7912 131.361 21.7789 130.28 21.0227 126.356Z" fill="#005E79"/>
<path d="M34.0813 109.03C33.1824 108.803 32.3048 109.217 31.9374 110.158L29.0991 117.429L25.8766 108.071C25.2305 106.194 21.726 106.738 22.4687 108.895L26.4564 120.472C26.5399 120.711 26.6788 120.928 26.862 121.106C27.0453 121.283 27.268 121.416 27.5126 121.494L24.9878 127.961C24.6238 128.895 25.5856 129.785 26.3092 129.968C27.2081 130.196 28.0856 129.781 28.4531 128.839C30.7722 122.906 33.0887 116.971 35.4026 111.036C35.7667 110.102 34.8049 109.213 34.0813 109.03Z" fill="#005E79"/>
<path d="M58.394 115.775C56.9996 112.522 54.2254 110.31 51.3939 108.946C53.3186 108.16 55.1321 106.979 56.2614 104.965C58.0198 101.83 56.6883 98.1818 54.6456 95.9662C52.331 93.4559 49.2073 92.108 46.0971 91.4004C45.0048 91.1534 43.8913 91.0082 42.7713 90.9665C42.7005 90.0569 42.1241 89.421 41.3106 89.3183C40.6296 89.2289 39.4004 89.7125 39.4004 90.7435V91.1365C37.884 91.3455 36.3964 91.7214 34.9655 92.257C34.179 92.5495 33.6868 93.5663 34.0554 94.4295C34.4464 95.3447 35.479 95.6229 36.2914 95.3204C37.2859 94.9502 38.3142 94.6745 39.3622 94.4969C39.324 98.6138 39.2866 102.73 39.2499 106.847C38.7903 106.892 38.3319 106.946 37.8746 107.018C35.906 107.325 36.1195 109.977 37.8903 110.307C38.33 110.389 38.7719 110.459 39.2161 110.516L39.1038 122.861L38.6543 122.572C37.9274 122.105 36.8948 122.058 36.2588 122.861C35.6902 123.582 35.8599 124.738 36.5633 125.192C37.3847 125.719 38.2195 126.252 39.0678 126.762C39.0678 127.195 39.06 127.628 39.0566 128.061C39.0465 129.086 39.6487 129.812 40.5274 129.926C41.2016 130.014 42.3859 129.547 42.4375 128.554C44.1702 129.327 45.9713 129.867 47.8635 129.952C49.5895 130.028 51.3097 129.705 52.8847 129.006C54.4596 128.308 55.8451 127.256 56.9288 125.933C59.2502 123.127 59.8288 119.122 58.394 115.775ZM42.751 94.2684C45.7398 94.3788 48.6803 95.3016 51.0579 97.1827C52.5321 98.3485 54.3344 100.597 53.4681 102.929C52.5692 105.331 49.668 106.13 47.7376 106.664C47.0718 106.846 46.3967 106.994 45.7151 107.106C44.696 106.92 43.6651 106.804 42.6297 106.757L42.751 94.2684ZM54.8928 122.971C53.5445 125.272 51.0073 126.595 48.7129 126.668C46.5264 126.738 44.4432 125.958 42.4679 124.901C42.5121 120.171 42.5555 115.441 42.5982 110.711C43.6158 110.698 44.6315 110.619 45.6387 110.476C46.4606 110.65 47.2693 110.88 48.059 111.163C50.5242 112.046 52.9029 113.393 54.5333 115.751C55.949 117.795 56.2625 120.632 54.8928 122.967V122.971Z" fill="#005E79"/>
<path d="M74.2157 114.846C73.6067 112.537 72.8303 110.055 71.0887 108.498C69.3471 106.941 66.8606 106.417 64.8212 107.582C64.2594 107.9 63.9954 108.322 63.9336 108.759C63.3426 108.99 62.7976 109.322 62.3234 109.739C60.7964 111.064 60.1885 113.138 60.0447 115.23C59.7604 119.413 60.3144 124.561 63.0785 127.647C65.9212 130.818 70.3719 130.782 73.0719 127.441C75.9191 123.921 75.3214 119.038 74.2157 114.846ZM70.8213 124.157C69.9887 126.013 68.2999 127.287 66.5774 126.002C64.3515 124.346 63.9785 120.978 63.8279 118.238C63.7392 116.634 63.5864 114.837 64.183 113.327C64.4852 112.56 65.2729 111.633 65.9178 112.002C66.9999 112.62 68.1842 111.938 68.5774 111.008C69.5314 112.05 70.1505 114.128 70.4145 115.072C71.1988 117.895 72.0876 121.339 70.8213 124.157Z" fill="#005E79"/>
<path d="M105.02 126.777L98.6521 118.438L105.618 112.618C107.613 110.952 104.863 108.382 103.167 109.8L96.3127 115.519C96.2632 115.483 96.2114 115.451 96.1577 115.422C96.1397 113.268 96.1213 111.115 96.1026 108.962C96.0925 107.851 95.3621 107.076 94.3689 106.975C93.5823 106.89 92.234 107.436 92.234 108.553C92.2632 111.989 92.2928 115.425 92.3228 118.862C91.4598 119.693 91.6902 120.71 92.3441 121.349C92.3621 123.573 92.3808 125.797 92.4003 128.021C92.4104 129.132 93.1408 129.906 94.134 130.008C94.9206 130.093 96.2689 129.547 96.2689 128.429L96.2094 121.429L101.997 129.01C103.344 130.758 106.592 128.837 105.02 126.777Z" fill="#005E79"/>
<path d="M118.001 124.968C116.219 126.377 113.947 126.383 112.297 124.526C111.088 123.167 110.296 121.075 110.096 118.876L113.002 118.975C114.666 119.032 116.495 119.307 118.014 118.107C119.812 116.685 120.091 113.691 119.159 111.221C118.406 109.224 116.995 107.881 115.504 107.289C112.133 105.951 108.796 108.665 107.351 113.124C107.188 113.628 107.055 114.141 106.952 114.66H106.781C105.988 114.634 105.075 115.462 105.075 116.715C105.075 117.968 105.915 118.676 106.68 118.759C106.835 121.439 107.613 124.058 108.875 126.054C111.585 130.346 116.222 131.291 119.724 128.52C121.676 126.972 119.695 123.63 118.001 124.968ZM113.606 111.047C114.35 111.002 115.156 111.416 115.695 112.211C116.088 112.789 116.692 114.267 116.002 114.768C115.546 115.1 114.792 114.928 114.316 114.913L111.861 114.829L110.471 114.781C111.034 112.852 112.169 111.135 113.61 111.047H113.606Z" fill="#005E79"/>
<path d="M137.439 108.52C137.129 107.258 136.469 106.943 135.594 107.073C134.858 107.183 133.859 107.787 134.036 109.018C134.662 113.405 134.875 117.84 134.672 122.265C133.746 120.667 132.82 119.07 131.893 117.474L129.19 112.811C128.364 111.387 127.582 109.593 126.554 108.462C125.485 107.286 123.669 107.304 122.834 109.268C122.169 110.833 122.324 113.188 122.219 114.898L121.432 127.576C121.352 128.848 121.975 129.763 122.829 129.918C123.531 130.043 124.723 129.463 124.803 128.183C124.989 125.176 125.177 122.169 125.365 119.162L125.638 114.774L125.685 114.03L126.61 115.625L129.21 120.108L134.514 129.254C135.233 130.496 137.347 130.376 137.594 128.332C138.394 121.675 138.984 114.82 137.439 108.52Z" fill="#005E79"/>
<path d="M90.0968 114.954C89.4878 112.645 88.7103 110.162 86.9698 108.606C85.2293 107.051 82.7417 106.525 80.7023 107.689C80.1405 108.008 79.8764 108.431 79.8135 108.866C79.223 109.099 78.6782 109.431 78.2034 109.847C76.6764 111.172 76.0685 113.246 75.9258 115.338C75.6415 119.521 76.1944 124.669 78.9596 127.755C81.8034 130.926 86.2529 130.89 88.953 127.55C91.7991 124.029 91.2025 119.146 90.0968 114.954ZM86.7024 124.265C85.8653 126.121 84.1799 127.395 82.4585 126.11C80.2315 124.454 79.8596 121.085 79.7079 118.345C79.6203 116.742 79.4674 114.945 80.0641 113.434C80.3663 112.669 81.154 111.74 81.799 112.109C82.8799 112.727 84.0653 112.044 84.4574 111.115C85.4114 112.157 86.0305 114.235 86.2956 115.179C87.0799 118.003 87.9687 121.447 86.7024 124.265Z" fill="#005E79"/>
</svg>
