<svg width="116" height="26" viewBox="0 0 116 26" fill="none" xmlns="http://www.w3.org/2000/svg">
<path d="M9.58935 17.0162C9.15038 17.0079 8.30404 16.9781 7.3899 16.3838C7.15627 16.2327 5.70708 15.2556 5.38921 13.3286C5.25668 12.4607 5.36566 11.5708 5.70297 10.7668C6.04028 9.96268 6.59146 9.27879 7.28987 8.7978C8.7305 7.81313 10.2258 8.10853 10.4897 8.16539C11.2797 8.33469 12.0079 8.73674 12.5897 9.3248C13.8303 10.591 13.8856 12.2372 13.8895 12.5908L15.3677 12.5763V7.12526C15.3677 7.12526 12.0441 0.924668 3.86697 0.0669041V19.0445C3.86697 19.0445 6.54487 19.0674 9.56763 20.518L9.58935 17.0162Z" fill="#005E79"/>
<path d="M20.89 8.37358C20.3127 8.63456 19.7997 9.03113 19.3901 9.53299C18.3852 10.7361 18.2996 12.1375 18.2897 12.5882L16.8675 12.5501V7.12057C21.2454 0.175244 28.3656 0.0615234 28.3656 0.0615234V19.0391C25.1408 19.1646 22.5155 20.5848 22.5155 20.5848L22.5879 17.0164C22.9696 17.0095 24.1944 16.9353 25.2862 15.9631C25.4534 15.814 26.7795 14.5936 26.7861 12.591C26.7907 11.1306 26.0905 10.1335 25.8858 9.85127C25.3227 9.05927 24.5271 8.48535 23.6227 8.21865C22.7182 7.95194 21.7555 8.00738 20.884 8.37636L20.89 8.37358Z" fill="#005E79"/>
<path d="M16.4457 22.3918L17.1847 21.1943C17.2047 21.1619 17.2161 21.1244 17.2176 21.0858C17.219 21.0472 17.2106 21.0088 17.1932 20.9749C17.1757 20.9409 17.1499 20.9124 17.1184 20.8926C17.0869 20.8728 17.051 20.8622 17.0143 20.8621H15.5355C15.4987 20.8621 15.4627 20.8726 15.4311 20.8923C15.3995 20.9121 15.3736 20.9405 15.3561 20.9745C15.3386 21.0086 15.3301 21.0469 15.3316 21.0856C15.333 21.1243 15.3443 21.1618 15.3644 21.1943L16.1041 22.3918C16.1227 22.4217 16.148 22.4463 16.1778 22.4633C16.2076 22.4803 16.241 22.4892 16.2749 22.4892C16.3088 22.4892 16.3422 22.4803 16.372 22.4633C16.4018 22.4463 16.4271 22.4217 16.4457 22.3918Z" fill="#005E79"/>
<path d="M0.000658263 5.68658C0.000658263 5.68658 0.544925 5.24487 1.56765 5.0195V19.7894C1.58937 19.8643 1.37021 20.9925 2.48902 21.1284C2.48902 21.1284 8.14492 20.842 12.0667 25.5663C12.0667 25.5663 7.11101 22.9355 0 24.9811L0.000658263 5.68658Z" fill="#005E79"/>
<path d="M32.1952 5.71362C32.1952 5.71362 31.6509 5.27191 30.6289 5.04655V19.8151C30.6065 19.8893 30.8263 21.0175 29.7075 21.1534C29.7075 21.1534 24.0523 20.867 20.1299 25.5913C20.1299 25.5913 25.0855 22.9604 32.1965 25.006L32.1952 5.71362Z" fill="#005E79"/>
<path d="M47.2478 23.3605C45.9078 15.9041 45.5426 8.23973 45.5163 0.587111C45.5163 0.0358397 43.7156 -0.257477 43.5524 0.297955C42.7403 3.05362 41.8413 6.75788 40.9858 9.98854L37.1844 1.19663C36.7468 0.18562 35.4029 0.661309 35.3206 1.74582C34.7451 9.32657 34.8129 16.9463 35.5233 24.5144C35.5891 25.1835 36.013 25.6024 36.5237 25.6024C36.9363 25.6024 37.5872 25.1863 37.5234 24.5144C36.9454 18.3665 36.7915 12.1825 37.0627 6.01107L40.35 13.6096C40.7245 14.4757 41.9394 14.2503 42.1776 13.3496C42.6554 11.5467 43.2602 8.35345 43.738 6.54847C43.638 11.7346 44.2843 19.0467 45.4379 24.2495C45.9408 26.5045 47.6907 25.8249 47.2478 23.3605Z" fill="#005E79"/>
<path d="M54.8965 12.4773C54.37 12.3344 53.856 12.5945 53.6408 13.186L51.9784 17.7528L50.0909 11.8747C49.7125 10.6959 47.6598 11.0377 48.0948 12.3927L50.4305 19.6646C50.4794 19.8148 50.5607 19.951 50.6681 20.0624C50.7754 20.1738 50.9059 20.2575 51.0491 20.3067L49.5703 24.3688C49.3571 24.9554 49.9204 25.5143 50.3443 25.6294C50.8708 25.7723 51.3848 25.5116 51.6 24.9201C52.9583 21.1931 54.3152 17.4655 55.6704 13.7372C55.8837 13.1506 55.3203 12.5924 54.8965 12.4773Z" fill="#005E79"/>
<path d="M69.1369 16.7141C68.3202 14.6706 66.6953 13.2809 65.0368 12.4246C66.1642 11.9309 67.2264 11.1889 67.8878 9.92408C68.9178 7.95476 68.1379 5.663 66.9414 4.2713C65.5857 2.69446 63.7561 1.84779 61.9344 1.4033C61.2946 1.24821 60.6424 1.15696 59.9864 1.13079C59.9449 0.559406 59.6073 0.159995 59.1308 0.0955065C58.732 0.0393392 58.012 0.343059 58.012 0.990716V1.23757C57.1238 1.36885 56.2525 1.60494 55.4144 1.9414C54.9537 2.12516 54.6655 2.7638 54.8813 3.30606C55.1104 3.8809 55.7152 4.05565 56.191 3.86565C56.7735 3.63312 57.3758 3.4599 57.9896 3.34835C57.9673 5.93436 57.9453 8.52013 57.9238 11.1057C57.6547 11.1341 57.3861 11.1681 57.1183 11.2132C55.9653 11.4059 56.0903 13.0722 57.1275 13.2796C57.385 13.3309 57.6439 13.3746 57.9041 13.4106L57.8383 21.1652L57.575 20.9835C57.1492 20.6902 56.5444 20.6604 56.1719 21.1652C55.8389 21.618 55.9383 22.344 56.3503 22.629C56.8313 22.9604 57.3203 23.2954 57.8172 23.6157C57.8172 23.8875 57.8126 24.1594 57.8106 24.4312C57.8047 25.0754 58.1575 25.531 58.6721 25.6031C59.067 25.6579 59.7607 25.3645 59.7909 24.7411C60.8057 25.2265 61.8607 25.5656 62.969 25.619C63.98 25.6672 64.9875 25.4638 65.91 25.0253C66.8325 24.5867 67.644 23.9255 68.2787 23.095C69.6384 21.3323 69.9773 18.8165 69.1369 16.7141ZM59.9745 3.20482C61.7251 3.27416 63.4475 3.85386 64.84 5.03545C65.7035 5.76771 66.7591 7.18021 66.2517 8.64472C65.7252 10.1536 64.0259 10.6556 62.8953 10.9913C62.5053 11.1055 62.1099 11.1981 61.7107 11.2686C61.1138 11.152 60.5099 11.0788 59.9035 11.0495L59.9745 3.20482ZM67.0862 21.2338C66.2965 22.6796 64.8104 23.5103 63.4665 23.5561C62.1858 23.6005 60.9657 23.1102 59.8087 22.4466C59.8346 19.4755 59.86 16.5044 59.885 13.5334C60.4811 13.5249 61.076 13.4756 61.6659 13.3857C62.1473 13.4949 62.621 13.639 63.0835 13.817C64.5274 14.3717 65.9207 15.2177 66.8756 16.6988C67.7048 17.983 67.8885 19.7651 67.0862 21.2317V21.2338Z" fill="#005E79"/>
<path d="M78.404 16.1302C78.0473 14.6803 77.5925 13.1208 76.5724 12.1431C75.5523 11.1653 74.0959 10.836 72.9014 11.5675C72.5723 11.7672 72.4177 12.0328 72.3815 12.3067C72.0354 12.4523 71.7162 12.6607 71.4384 12.9225C70.544 13.7546 70.188 15.0575 70.1037 16.3716C69.9372 18.9989 70.2617 22.2331 71.8806 24.1712C73.5457 26.1634 76.1525 26.1405 77.734 24.0422C79.4017 21.8309 79.0515 18.7639 78.404 16.1302ZM76.4158 21.9793C75.9281 23.1449 74.9389 23.9451 73.93 23.138C72.6263 22.0978 72.4078 19.9822 72.3196 18.2611C72.2676 17.2536 72.1781 16.1247 72.5276 15.1761C72.7046 14.6949 73.166 14.1124 73.5437 14.344C74.1775 14.7323 74.8712 14.3038 75.1015 13.7199C75.6602 14.3745 76.0229 15.6795 76.1775 16.2724C76.6369 18.0455 77.1575 20.209 76.4158 21.9793Z" fill="#005E79"/>
<path d="M96.4464 23.6248L92.7168 18.3866L96.7971 14.7309C97.9653 13.6845 96.3549 12.0703 95.3611 12.9606L91.3466 16.5532C91.3176 16.5309 91.2872 16.5105 91.2557 16.4922C91.2452 15.1396 91.2345 13.7869 91.2235 12.4343C91.2176 11.7367 90.7898 11.2499 90.208 11.1861C89.7473 11.1327 88.9576 11.476 88.9576 12.1777C88.9747 14.3357 88.992 16.4941 89.0096 18.6529C88.5041 19.1751 88.6391 19.8137 89.0221 20.2152C89.0326 21.6122 89.0436 23.0092 89.055 24.4062C89.0609 25.1038 89.4887 25.5906 90.0705 25.6544C90.5312 25.7078 91.3209 25.3646 91.3209 24.6628L91.286 20.2658L94.676 25.0276C95.4651 26.1252 97.3671 24.9187 96.4464 23.6248Z" fill="#005E79"/>
<path d="M104.05 22.4882C103.006 23.3737 101.675 23.3772 100.709 22.2109C100.001 21.3572 99.5369 20.0432 99.4198 18.6619L101.122 18.7243C102.096 18.7597 103.168 18.9324 104.058 18.1786C105.111 17.2855 105.274 15.4049 104.728 13.8537C104.287 12.5993 103.461 11.7554 102.587 11.3837C100.613 10.5433 98.6583 12.2478 97.812 15.0485C97.7166 15.3653 97.6386 15.6875 97.5784 16.0137H97.4783C97.0137 15.9971 96.4786 16.5172 96.4786 17.3042C96.4786 18.0912 96.9709 18.5364 97.4191 18.5884C97.5099 20.272 97.9653 21.9168 98.7044 23.1706C100.292 25.8666 103.008 26.4601 105.059 24.7197C106.202 23.7475 105.042 21.6478 104.05 22.4882ZM101.476 13.7442C101.911 13.7157 102.383 13.9758 102.699 14.475C102.93 14.8384 103.283 15.7669 102.879 16.0817C102.612 16.2897 102.17 16.1822 101.892 16.1725L100.454 16.1198L99.6396 16.0893C99.9693 14.8779 100.634 13.7996 101.478 13.7442H101.476Z" fill="#005E79"/>
<path d="M115.435 12.1569C115.254 11.3644 114.867 11.166 114.355 11.2479C113.923 11.3172 113.338 11.6965 113.442 12.4697C113.809 15.2254 113.933 18.0109 113.814 20.7908C113.272 19.7871 112.729 18.784 112.187 17.7813L110.603 14.8523C110.12 13.9578 109.661 12.8309 109.059 12.1202C108.433 11.3817 107.37 11.3928 106.881 12.6264C106.491 13.6097 106.582 15.0887 106.52 16.1628L106.06 24.1268C106.013 24.9256 106.377 25.5005 106.878 25.5976C107.289 25.6766 107.987 25.3119 108.034 24.5082C108.143 22.6193 108.253 20.7304 108.363 18.8415L108.523 16.0852L108.551 15.6178L109.092 16.6198L110.615 19.4358L113.722 25.1808C114.143 25.9609 115.381 25.8853 115.526 24.6018C115.995 20.4198 116.34 16.1143 115.435 12.1569Z" fill="#005E79"/>
<path d="M87.7059 16.1982C87.3492 14.7483 86.8937 13.188 85.8743 12.211C84.8549 11.234 83.3978 10.9039 82.2033 11.6348C81.8742 11.8352 81.7196 12.1008 81.6827 12.374C81.3369 12.5204 81.0178 12.729 80.7396 12.9904C79.8453 13.8225 79.4892 15.1255 79.4056 16.4395C79.2391 19.0669 79.5629 22.301 81.1826 24.2391C82.8483 26.2313 85.4544 26.2085 87.0359 24.1102C88.7029 21.8988 88.3535 18.8318 87.7059 16.1982ZM85.7177 22.0472C85.2274 23.2129 84.2402 24.0131 83.232 23.2059C81.9276 22.1658 81.7097 20.0495 81.6209 18.3284C81.5695 17.3215 81.48 16.1927 81.8295 15.2434C82.0065 14.7628 82.4679 14.1796 82.8456 14.4112C83.4788 14.7996 84.1731 14.3703 84.4028 13.7872C84.9615 14.4418 85.3241 15.7468 85.4794 16.3397C85.9388 18.1134 86.4594 20.2769 85.7177 22.0472Z" fill="#005E79"/>
</svg>
