<svg width="222" height="46" viewBox="0 0 222 46" fill="none" xmlns="http://www.w3.org/2000/svg">
<path d="M18.3521 30.3665C17.512 30.3516 15.8923 30.2984 14.1428 29.2379C13.6957 28.9682 10.9222 27.2246 10.3139 23.7858C10.0603 22.2368 10.2688 20.6489 10.9144 19.214C11.5599 17.7791 12.6147 16.5586 13.9513 15.7003C16.7084 13.9431 19.57 14.4703 20.0751 14.5717C21.5871 14.8739 22.9807 15.5913 24.0942 16.6407C26.4684 18.9003 26.5742 21.838 26.5817 22.4691L29.4106 22.4431V12.7156C29.4106 12.7156 23.05 1.65035 7.40063 0.119629V33.986C7.40063 33.986 12.5256 34.0268 18.3105 36.6156L18.3521 30.3665Z" fill="#005E79"/>
<path d="M39.9791 14.943C38.8743 15.4087 37.8924 16.1164 37.1086 17.012C35.1854 19.159 35.0216 21.6598 35.0027 22.4642L32.2809 22.3961V12.7069C40.6592 0.31268 54.2858 0.109741 54.2858 0.109741V33.9761C48.1142 34.2001 43.0901 36.7344 43.0901 36.7344L43.2286 30.3665C43.9591 30.3541 46.3031 30.2217 48.3926 28.4868C48.7125 28.2208 51.2504 26.0429 51.263 22.4691C51.2718 19.8631 49.9317 18.0836 49.54 17.58C48.4624 16.1666 46.9398 15.1424 45.2089 14.6665C43.478 14.1905 41.6356 14.2895 39.9677 14.9479L39.9791 14.943Z" fill="#005E79"/>
<path d="M31.4736 39.959L32.888 37.822C32.9263 37.7642 32.948 37.6973 32.9508 37.6284C32.9536 37.5595 32.9375 37.4911 32.9041 37.4304C32.8707 37.3697 32.8213 37.319 32.7611 37.2836C32.7008 37.2482 32.632 37.2294 32.5618 37.2292H29.7317C29.6614 37.2292 29.5923 37.2479 29.5319 37.2832C29.4715 37.3185 29.4219 37.3692 29.3884 37.4299C29.3548 37.4906 29.3386 37.559 29.3414 37.6281C29.3442 37.6971 29.3659 37.7641 29.4042 37.822L30.8199 39.959C30.8554 40.0124 30.9038 40.0562 30.9609 40.0866C31.018 40.1169 31.0818 40.1328 31.1467 40.1328C31.2116 40.1328 31.2755 40.1169 31.3325 40.0866C31.3896 40.0562 31.4381 40.0124 31.4736 39.959Z" fill="#005E79"/>
<path d="M0.00125978 10.1481C0.00125978 10.1481 1.04287 9.35981 3.00015 8.95764V35.3152C3.04172 35.4488 2.6223 37.4622 4.76347 37.7047C4.76347 37.7047 15.5877 37.1936 23.0931 45.6243C23.0931 45.6243 13.609 40.9295 0 44.5799L0.00125978 10.1481Z" fill="#005E79"/>
<path d="M61.615 10.1964C61.615 10.1964 60.5733 9.40815 58.6173 9.00598V35.3611C58.5745 35.4935 58.9952 37.5068 56.854 37.7493C56.854 37.7493 46.031 37.2383 38.5244 45.669C38.5244 45.669 48.0085 40.9741 61.6175 44.6246L61.615 10.1964Z" fill="#005E79"/>
<path d="M90.4225 41.6879C87.8582 28.3816 87.1591 14.7042 87.1088 1.04773C87.1088 0.0639575 83.6627 -0.459479 83.3504 0.531713C81.7961 5.44932 80.0757 12.0597 78.4383 17.825L71.1634 2.13544C70.3258 0.331246 67.7539 1.18013 67.5964 3.1155C66.4949 16.6437 66.6247 30.2415 67.9844 43.747C68.1103 44.9411 68.9214 45.6885 69.8988 45.6885C70.6885 45.6885 71.9342 44.9461 71.812 43.747C70.7059 32.7757 70.4113 21.7401 70.9304 10.727L77.2216 24.2869C77.9383 25.8325 80.2633 25.4303 80.7193 23.8229C81.6337 20.6055 82.7912 14.9071 83.7056 11.686C83.5141 20.9409 84.751 33.9897 86.9589 43.2743C87.9211 47.2984 91.2702 46.0857 90.4225 41.6879Z" fill="#005E79"/>
<path d="M105.061 22.2662C104.053 22.0113 103.069 22.4754 102.657 23.5309L99.4759 31.6807L95.8636 21.1909C95.1394 19.0872 91.211 19.6973 92.0435 22.1153L96.5135 35.0923C96.6071 35.3603 96.7628 35.6033 96.9682 35.8022C97.1737 36.001 97.4233 36.1503 97.6975 36.2382L94.8674 43.4871C94.4593 44.534 95.5374 45.5314 96.3485 45.7368C97.3562 45.9917 98.3398 45.5265 98.7517 44.4709C101.351 37.8201 103.948 31.168 106.542 24.5147C106.95 23.4678 105.872 22.4716 105.061 22.2662Z" fill="#005E79"/>
<path d="M132.314 29.8269C130.751 26.1802 127.641 23.7003 124.467 22.1721C126.625 21.291 128.657 19.9669 129.923 17.7098C131.894 14.1955 130.402 10.1058 128.112 7.6222C125.518 4.80826 122.016 3.29734 118.53 2.50414C117.305 2.22736 116.057 2.06453 114.802 2.01782C114.722 0.998165 114.076 0.285398 113.164 0.170315C112.401 0.0700824 111.023 0.612083 111.023 1.76786V2.20839C109.323 2.44265 107.656 2.86397 106.052 3.46439C105.17 3.79231 104.618 4.932 105.032 5.89968C105.47 6.92553 106.627 7.23736 107.538 6.8983C108.653 6.48335 109.805 6.17423 110.98 5.97517C110.937 10.59 110.895 15.2044 110.854 19.8185C110.339 19.8692 109.825 19.9298 109.313 20.0103C107.106 20.3543 107.345 23.3278 109.33 23.6978C109.823 23.7894 110.319 23.8674 110.817 23.9317L110.691 37.7701L110.187 37.4458C109.372 36.9224 108.214 36.8692 107.501 37.7701C106.864 38.5781 107.054 39.8737 107.843 40.3823C108.764 40.9738 109.699 41.5715 110.65 42.1432C110.65 42.6283 110.641 43.1133 110.638 43.5984C110.626 44.748 111.301 45.561 112.286 45.6897C113.042 45.7875 114.37 45.264 114.428 44.1516C116.37 45.0178 118.389 45.6229 120.51 45.7182C122.445 45.8041 124.373 45.4411 126.138 44.6586C127.904 43.876 129.457 42.6959 130.671 41.2139C133.274 38.0683 133.922 33.5788 132.314 29.8269ZM114.779 5.71901C118.129 5.84276 121.425 6.87726 124.09 8.98587C125.743 10.2926 127.763 12.8133 126.792 15.4268C125.785 18.1194 122.532 19.0154 120.369 19.6143C119.622 19.8181 118.866 19.9834 118.102 20.1093C116.959 19.9011 115.804 19.7704 114.643 19.7182L114.779 5.71901ZM128.389 37.8926C126.878 40.4726 124.034 41.9551 121.462 42.0368C119.011 42.116 116.676 41.2411 114.462 40.0569C114.511 34.7548 114.56 29.4528 114.608 24.1507C115.748 24.1356 116.887 24.0476 118.016 23.8872C118.937 24.082 119.844 24.3392 120.729 24.6569C123.492 25.6468 126.159 27.1565 127.986 29.7997C129.573 32.0914 129.925 35.2717 128.389 37.8888V37.8926Z" fill="#005E79"/>
<path d="M150.049 28.7851C149.366 26.1976 148.496 23.4146 146.544 21.6698C144.592 19.925 141.804 19.3372 139.518 20.6427C138.888 20.9991 138.592 21.473 138.523 21.9618C137.861 22.2215 137.25 22.5935 136.718 23.0606C135.007 24.5456 134.325 26.8707 134.164 29.2157C133.845 33.9044 134.466 39.6758 137.565 43.1345C140.751 46.6896 145.74 46.6488 148.767 42.9043C151.958 38.9581 151.288 33.4849 150.049 28.7851ZM146.244 39.2229C145.311 41.3031 143.418 42.7311 141.487 41.2907C138.992 39.4345 138.574 35.6591 138.405 32.5877C138.305 30.7897 138.134 28.7752 138.803 27.0823C139.142 26.2236 140.025 25.1841 140.747 25.5974C141.96 26.2904 143.288 25.5256 143.729 24.4837C144.798 25.6519 145.492 27.9807 145.788 29.0387C146.667 32.2029 147.663 36.0637 146.244 39.2229Z" fill="#005E79"/>
<path d="M184.578 42.1593L177.441 32.8117L185.25 26.2878C187.485 24.4205 184.403 21.5398 182.502 23.1287L174.819 29.5399C174.763 29.5 174.705 29.4636 174.645 29.431C174.625 27.0171 174.604 24.6033 174.583 22.1894C174.572 20.9446 173.753 20.0759 172.64 19.962C171.758 19.8668 170.247 20.4793 170.247 21.7316C170.279 25.5825 170.312 29.4343 170.346 33.2868C169.379 34.2186 169.637 35.3583 170.37 36.0748C170.39 38.5678 170.411 41.0609 170.433 43.5539C170.444 44.7988 171.263 45.6675 172.376 45.7813C173.258 45.8766 174.769 45.264 174.769 44.0118L174.703 36.1651L181.19 44.6627C182.701 46.6215 186.341 44.4684 184.578 42.1593Z" fill="#005E79"/>
<path d="M199.13 40.131C197.132 41.7112 194.585 41.7174 192.736 39.636C191.381 38.1127 190.493 35.7678 190.269 33.3028L193.526 33.4141C195.391 33.4773 197.442 33.7854 199.145 32.4403C201.16 30.8464 201.472 27.4905 200.428 24.7223C199.584 22.4838 198.002 20.9778 196.331 20.3146C192.552 18.8148 188.812 21.8564 187.192 26.8545C187.009 27.4197 186.86 27.9949 186.745 28.577H186.553C185.664 28.5473 184.64 29.4754 184.64 30.8799C184.64 32.2844 185.582 33.0788 186.44 33.1716C186.614 36.1761 187.485 39.1113 188.9 41.3486C191.938 46.1598 197.136 47.2191 201.062 44.1131C203.249 42.3782 201.029 38.6312 199.13 40.131ZM194.204 24.5268C195.037 24.4761 195.941 24.9401 196.545 25.8311C196.986 26.4795 197.662 28.1364 196.889 28.6982C196.378 29.0695 195.532 28.8777 195 28.8603L192.248 28.7663L190.69 28.7119C191.321 26.55 192.593 24.6258 194.207 24.5268H194.204Z" fill="#005E79"/>
<path d="M220.919 21.6947C220.571 20.2803 219.832 19.9264 218.851 20.0724C218.026 20.1962 216.906 20.873 217.104 22.2528C217.806 27.1705 218.045 32.1413 217.817 37.1021C216.779 35.3111 215.741 33.521 214.702 31.7316L211.672 26.5046C210.746 24.9083 209.869 22.8975 208.717 21.6291C207.519 20.3112 205.484 20.331 204.548 22.5325C203.802 24.2871 203.976 26.9266 203.858 28.8434L202.976 43.0555C202.887 44.481 203.584 45.5068 204.542 45.6801C205.329 45.8212 206.665 45.1703 206.755 43.7361C206.964 40.3653 207.174 36.9945 207.384 33.6237L207.69 28.7048L207.743 27.8708L208.78 29.6589L211.694 34.6842L217.641 44.9364C218.447 46.3285 220.816 46.1936 221.093 43.9031C221.99 36.4401 222.651 28.7568 220.919 21.6947Z" fill="#005E79"/>
<path d="M167.851 28.9065C167.168 26.319 166.297 23.5348 164.346 21.7912C162.395 20.0476 159.606 19.4586 157.32 20.7629C156.69 21.1205 156.394 21.5945 156.324 22.082C155.662 22.3433 155.051 22.7155 154.519 23.1821C152.807 24.667 152.126 26.9922 151.966 29.3371C151.647 34.0258 152.267 39.7973 155.367 43.2559C158.554 46.8111 163.542 46.7703 166.569 43.0257C169.759 39.0795 169.09 33.6063 167.851 28.9065ZM164.046 39.3443C163.108 41.4245 161.218 42.8525 159.289 41.4121C156.792 39.556 156.376 35.7793 156.205 32.7079C156.107 30.9112 155.936 28.8966 156.605 27.2025C156.944 26.345 157.826 25.3043 158.549 25.7176C159.761 26.4106 161.09 25.6446 161.529 24.6039C162.599 25.7721 163.293 28.1009 163.59 29.1589C164.469 32.3243 165.465 36.1852 164.046 39.3443Z" fill="#005E79"/>
</svg>
