<svg width="128" height="128" viewBox="0 0 128 128" fill="none" xmlns="http://www.w3.org/2000/svg">
<g clip-path="url(#clip0_110_1191)">
<path d="M64.0007 0C28.654 0 0 29.1445 0 65.0963C0.00781796 77.5889 3.54486 89.8161 10.1901 100.322C16.8353 110.829 26.3088 119.171 37.4828 124.357C40.9451 125.962 44.4073 127.227 48.2745 126.868C49.0889 126.792 49.9394 126.636 50.5747 126.112C51.9521 124.973 51.0082 123.479 49.9725 122.543C47.0161 119.858 43.4514 117.752 39.941 115.91C37.8363 114.809 35.7952 113.586 33.8278 112.248C29.9918 109.644 26.472 106.589 23.3417 103.144C20.2708 99.7609 17.6197 96.0071 15.4477 91.9671C13.2677 87.8999 11.5988 83.5702 10.4801 79.0798C9.33417 74.4499 8.75873 69.693 8.76706 64.9187C8.76706 33.7944 33.575 8.56191 64.1754 8.56191C94.7758 8.56191 119.584 33.7929 119.584 64.9187C119.581 74.5192 117.168 83.96 112.573 92.3466C107.979 100.733 101.356 107.788 93.3307 112.842C91.5243 113.98 89.626 114.918 87.776 115.955C86.9706 116.406 86.0433 116.668 85.1627 116.918C84.1412 117.232 83.1041 117.49 82.0557 117.693C79.8826 118.06 77.6509 117.702 75.6942 116.673C74.7348 116.182 73.8903 115.487 73.2179 114.635C72.7482 114.023 71.8631 112.563 72.1356 111.726C72.2485 111.366 72.8882 111.251 73.2405 111.127C74.0835 110.821 75.068 110.637 75.8522 110.209C75.8159 110.207 75.7795 110.21 75.7439 110.218C73.8923 110.559 70.9268 112.375 69.0812 112.715C64.8964 113.481 62.7438 113.021 58.5605 113.787C57.15 114.046 53.3069 112.458 51.8964 112.715C51.8964 112.715 55.7666 117.362 58.2097 119.848C58.1992 119.848 59.6232 121.277 59.6127 121.275C61.5215 123.385 66.3506 126.328 70.8335 127.34C77.1468 128.767 81.9458 127.461 82.4065 127.34C109.766 120.144 127.995 94.9313 127.995 65.0978C128 29.1445 99.352 0 64.0007 0Z" fill="#005E79"/>
<path d="M88.7334 63.5223L88.6792 63.3692C90.4645 69.6268 91.1103 73.8327 91.1103 73.8327C92.3326 82.1007 89.9738 89.4255 89.9738 89.4255C89.4174 92.634 88.419 95.7467 87.0083 98.6718C86.0672 100.613 84.8838 102.422 83.4873 104.055C83.1019 104.498 82.7 104.925 82.274 105.327C81.8932 105.689 81.5725 106.107 81.1932 106.471C80.5639 107.073 79.8143 107.512 79.182 108.093C78.6164 108.578 78.0122 109.014 77.3756 109.397C76.1502 110.186 74.8586 110.863 73.516 111.42C70.9546 112.469 68.2745 113.189 65.5377 113.563C63.232 113.89 60.9048 114.035 58.577 113.997C57.1419 113.98 55.7085 113.89 54.2823 113.727C54.0695 113.718 53.8579 113.69 53.6501 113.643C42.6883 110.274 37.5129 101.02 37.5129 101.02C32.044 92.4708 32.2442 81.3458 32.2442 81.3458C32.163 69.7095 35.3347 63.8576 35.3347 63.8576C46.9664 67.765 51.7835 61.3726 51.4071 58.6151C49.2405 59.8339 46.8718 60.6369 44.4194 60.9837C42.6762 61.2272 39.6384 61.6145 36.1009 60.307C34.8831 59.8568 32.3015 58.8647 30.1112 56.245C27.8622 53.5579 27.3323 50.7177 27.1156 49.476C26.6502 47.0013 26.8368 44.4454 27.6564 42.0678C28.476 39.6902 29.8994 37.5754 31.7821 35.938C35.4145 32.6951 39.4834 32.3154 40.7659 32.2159C42.7229 32.0628 44.8981 32.4945 45.9714 32.7365V33.0718C46.3221 31.9449 46.852 30.7567 47.6272 29.0098C48.608 26.7341 49.836 24.5772 51.2882 22.5791C52.7439 20.5887 54.1167 18.7223 56.6126 17.1652C57.7491 16.4547 59.6609 15.7872 61.7202 15.6907C63.4001 15.6157 64.2476 15.8836 64.9311 16.15C66.7254 16.8467 67.8634 17.8787 68.9232 18.8586C70.0341 19.8844 70.7085 20.7571 71.5861 21.9039C74.1625 25.2732 76.1852 29.0446 77.5759 33.0718V32.7334C79.2164 32.3908 80.8953 32.2769 82.566 32.395C83.8501 32.4945 87.919 32.8743 91.5514 36.1171C93.433 37.7551 94.855 39.8703 95.673 42.248C96.491 44.6257 96.6759 47.1812 96.2089 49.6551C95.9936 50.8968 95.4637 53.737 93.2148 56.4241C91.0245 59.0438 88.4428 60.036 87.225 60.4861C83.6875 61.7937 80.6498 61.4048 78.9066 61.1629C75.8959 60.7418 73.1863 59.5231 71.5861 58.6243C71.109 61.5089 77.5759 68.4402 88.7334 63.5223Z" fill="#005E79"/>
</g>
<defs>
<clipPath id="clip0_110_1191">
<rect width="128" height="128" fill="white"/>
</clipPath>
</defs>
</svg>
