<svg width="60" height="60" viewBox="0 0 60 60" fill="none" xmlns="http://www.w3.org/2000/svg">
<g clip-path="url(#clip0_1399_4497)">
<path d="M30.0003 0C13.4316 0 0 13.6615 0 30.5139C0.00366467 36.3698 1.66166 42.1013 4.7766 47.0261C7.89155 51.9509 12.3322 55.8616 17.5701 58.2926C19.193 59.0447 20.8159 59.6376 22.6287 59.4696C23.0104 59.4337 23.4091 59.3605 23.7069 59.1151C24.3525 58.5811 23.9101 57.8806 23.4246 57.4421C22.0388 56.1832 20.3679 55.1964 18.7223 54.333C17.7358 53.8168 16.779 53.2436 15.8568 52.6163C14.0587 51.3958 12.4088 49.9634 10.9414 48.3488C9.50194 46.7629 8.25922 45.0033 7.24112 43.1096C6.21924 41.2031 5.43692 39.1735 4.91256 37.0687C4.37539 34.8984 4.10566 32.6686 4.10956 30.4306C4.10956 15.8411 15.7383 4.0134 30.0822 4.0134C44.4261 4.0134 56.0548 15.8404 56.0548 30.4306C56.0534 34.9309 54.9223 39.3562 52.7688 43.2875C50.6152 47.2187 47.5105 50.5255 43.7487 52.8947C42.902 53.428 42.0122 53.8679 41.145 54.3538C40.7675 54.5655 40.3328 54.6883 39.92 54.8053C39.4412 54.9523 38.955 55.0736 38.4636 55.1684C37.445 55.3406 36.3989 55.1729 35.4816 54.6904C35.0319 54.4602 34.6361 54.1344 34.3209 53.7352C34.1007 53.4481 33.6858 52.7641 33.8135 52.3715C33.8665 52.2029 34.1664 52.149 34.3315 52.0909C34.7266 51.9474 35.1881 51.8612 35.5557 51.6603C35.5387 51.6596 35.5216 51.661 35.5049 51.6646C34.637 51.8246 33.2469 52.6758 32.3818 52.8352C30.4202 53.194 29.4112 52.9787 27.4502 53.3376C26.7891 53.4588 24.9876 52.7146 24.3264 52.8352C24.3264 52.8352 26.1406 55.0134 27.2858 56.1789C27.2809 56.1789 27.9484 56.8486 27.9435 56.8478C28.8382 57.8368 31.1018 59.2163 33.2032 59.6907C36.1626 60.3596 38.4121 59.7474 38.628 59.6907C51.4528 56.3175 59.9979 44.499 59.9979 30.5146C60 13.6615 46.5712 0 30.0003 0Z" fill="#005E79"/>
<path d="M41.5938 29.7761L41.5684 29.7043C42.4053 32.6375 42.708 34.6091 42.708 34.6091C43.2809 38.4847 42.1752 41.9182 42.1752 41.9182C41.9144 43.4222 41.4464 44.8812 40.7851 46.2524C40.344 47.1622 39.7893 48.0104 39.1347 48.7758C38.954 48.9832 38.7656 49.1835 38.566 49.3722C38.3874 49.5416 38.2371 49.7375 38.0593 49.9084C37.7644 50.1904 37.413 50.3964 37.1166 50.6684C36.8514 50.8957 36.5682 51.1002 36.2698 51.2799C35.6954 51.6495 35.09 51.9668 34.4606 52.228C33.26 52.7199 32.0037 53.0574 30.7208 53.2328C29.64 53.3861 28.5491 53.454 27.458 53.4359C26.7853 53.4282 26.1134 53.3861 25.4448 53.3095C25.3451 53.3054 25.2459 53.2922 25.1485 53.2701C20.0101 51.6911 17.5842 47.3533 17.5842 47.3533C15.0207 43.3457 15.1145 38.1308 15.1145 38.1308C15.0764 32.6763 16.5631 29.9332 16.5631 29.9332C22.0155 31.7648 24.2735 28.7684 24.0971 27.4758C23.0815 28.0471 21.9712 28.4235 20.8216 28.5861C20.0045 28.7002 18.5805 28.8818 16.9223 28.2689C16.3515 28.0579 15.1413 27.5928 14.1146 26.3648C13.0604 25.1052 12.812 23.7739 12.7104 23.1918C12.4923 22.0318 12.5798 20.8338 12.964 19.7193C13.3481 18.6047 14.0153 17.6134 14.8979 16.8459C16.6005 15.3258 18.5079 15.1478 19.109 15.1012C20.0264 15.0294 21.046 15.2318 21.5491 15.3452V15.5024C21.7135 14.9741 21.9619 14.4172 22.3253 13.5983C22.785 12.5316 23.3606 11.5205 24.0414 10.5839C24.7237 9.65093 25.3672 8.77605 26.5372 8.04615C27.0699 7.71313 27.9661 7.40021 28.9313 7.355C29.7188 7.31983 30.1161 7.44543 30.4364 7.57031C31.2775 7.89687 31.811 8.3806 32.3078 8.83993C32.8285 9.32079 33.1446 9.72988 33.556 10.2674C34.7637 11.8468 35.7118 13.6146 36.3637 15.5024V15.3438C37.1327 15.1831 37.9197 15.1298 38.7028 15.1851C39.3047 15.2318 41.212 15.4098 42.9147 16.9299C43.7967 17.6977 44.4633 18.6892 44.8467 19.8037C45.2302 20.9183 45.3168 22.1162 45.0979 23.2758C44.997 23.8579 44.7486 25.1892 43.6944 26.4488C42.6677 27.6768 41.4576 28.1418 40.8867 28.3528C39.2285 28.9658 37.8046 28.7835 36.9875 28.6701C35.5762 28.4727 34.3061 27.9014 33.556 27.4801C33.3323 28.8323 36.3637 32.0813 41.5938 29.7761Z" fill="#005E79"/>
</g>
<defs>
<clipPath id="clip0_1399_4497">
<rect width="60" height="60" fill="white"/>
</clipPath>
</defs>
</svg>
