<svg xmlns="http://www.w3.org/2000/svg" viewBox="0 0 1762.57 370.76"><g id="Layer_4" data-name="Layer 4"><path d="M229.7,571.64c-6.67-.12-19.53-.55-33.42-9.12-3.55-2.18-25.57-16.27-30.4-44.06a65.61,65.61,0,0,1,28.88-65.34c21.89-14.2,44.61-9.94,48.62-9.12a64.73,64.73,0,0,1,31.91,16.72c18.85,18.26,19.69,42,19.75,47.1l22.46-.21V429S267,339.58,142.75,327.21V600.89s40.69.33,86.62,21.25Z" transform="translate(-84 -326.24)"/><path d="M401.41,447a62.62,62.62,0,0,0-22.79,16.72c-15.27,17.35-16.57,37.56-16.72,44.06l-21.61-.55V428.93C406.81,328.77,515,327.13,515,327.13V600.81c-49,1.81-88.89,22.29-88.89,22.29l1.1-51.46c5.8-.1,24.41-1.17,41-15.19,2.54-2.15,22.69-19.75,22.79-48.63.07-21.06-10.57-35.44-13.68-39.51a64.78,64.78,0,0,0-76-21.27Z" transform="translate(-84 -326.24)"/><path d="M333.88,649.16l11.23-17.27a3.1,3.1,0,0,0-2.59-4.79H320.05a3.1,3.1,0,0,0-2.6,4.79l11.24,17.27A3.1,3.1,0,0,0,333.88,649.16Z" transform="translate(-84 -326.24)"/><path d="M84,408.25s8.27-6.37,23.81-9.62v213c.33,1.08-3,17.35,14,19.31,0,0,85.94-4.13,145.53,64,0,0-75.3-37.94-183.35-8.44Z" transform="translate(-84 -326.24)"/><path d="M573.19,408.64s-8.27-6.37-23.8-9.62V612c-.34,1.07,3,17.34-14,19.3,0,0-85.93-4.13-145.53,64,0,0,75.3-37.94,183.35-8.44Z" transform="translate(-84 -326.24)"/></g><g id="Layer_6" data-name="Layer 6"><path d="M801.91,663.13C781.55,555.6,776,445.07,775.6,334.71c0-7.95-27.36-12.18-29.84-4.17-12.34,39.74-26,93.16-39,139.75L649,343.5c-6.65-14.58-27.07-7.72-28.32,7.92a1842.86,1842.86,0,0,0,3.08,328.35c1,9.65,7.44,15.69,15.2,15.69,6.27,0,16.16-6,15.19-15.69a1842.51,1842.51,0,0,1-7-266.84l49.95,109.58c5.69,12.49,24.15,9.24,27.77-3.75,7.26-26,16.45-72.05,23.71-98.08-1.52,74.79,8.3,180.24,25.83,255.27C782.05,708.47,808.64,698.67,801.91,663.13Z" transform="translate(-84 -326.24)"/><path d="M918.13,506.18c-8-2.06-15.81,1.69-19.08,10.22l-25.26,65.86-28.68-84.77c-5.75-17-36.94-12.07-30.33,7.47l35.49,104.87a14.79,14.79,0,0,0,9.4,9.26L837.2,677.67c-3.24,8.46,5.32,16.52,11.76,18.18,8,2.06,15.81-1.7,19.08-10.23Q899,605,929.89,524.35C933.13,515.89,924.57,507.84,918.13,506.18Z" transform="translate(-84 -326.24)"/><path d="M1134.51,567.28c-12.41-29.47-37.1-49.51-62.3-61.86,17.13-7.12,33.27-17.82,43.32-36.06,15.65-28.4,3.8-61.45-14.38-81.52-20.6-22.74-48.4-34.95-76.08-41.36a158.82,158.82,0,0,0-29.6-3.93c-.63-8.24-5.76-14-13-14.93-6.06-.81-17,3.57-17,12.91l0,3.56A181.78,181.78,0,0,0,926,354.24c-7,2.65-11.38,11.86-8.1,19.68,3.48,8.29,12.67,10.81,19.9,8.07a148.27,148.27,0,0,1,27.33-7.46q-.51,55.94-1,111.87c-4.09.41-8.17.9-12.24,1.55-17.52,2.78-15.62,26.81.14,29.8q5.87,1.11,11.8,1.89l-1,111.83-4-2.62c-6.47-4.23-15.66-4.66-21.32,2.62-5.06,6.53-3.55,17,2.71,21.11,7.31,4.78,14.74,9.61,22.29,14.23,0,3.92-.07,7.84-.1,11.76-.09,9.29,5.27,15.86,13.09,16.9,6,.79,16.54-3.44,17-12.43,15.42,7,31.45,11.89,48.29,12.66a97.91,97.91,0,0,0,80.68-36.4C1142.13,633.88,1147.28,597.6,1134.51,567.28ZM995.29,372.46c26.6,1,52.77,9.36,73.93,26.4,13.12,10.56,29.16,30.93,21.45,52.05-8,21.76-33.82,29-51,33.84a175.71,175.71,0,0,1-18,4,201,201,0,0,0-27.46-3.16Zm108.06,260c-12,20.85-34.58,32.83-55,33.49-19.46.64-38-6.43-55.58-16q.59-64.27,1.16-128.54a208.72,208.72,0,0,0,27.06-2.13,162.44,162.44,0,0,1,21.54,6.22c21.94,8,43.11,20.2,57.62,41.56C1112.75,585.58,1115.54,611.28,1103.35,632.43Z" transform="translate(-84 -326.24)"/><path d="M1275.32,558.86c-5.42-20.91-12.33-43.4-27.83-57.5s-37.63-18.85-55.78-8.3c-5,2.88-7.35,6.71-7.9,10.66a48.41,48.41,0,0,0-14.33,8.88c-13.59,12-19,30.79-20.28,49.74-2.53,37.89,2.4,84.53,27,112.48,25.3,28.73,64.91,28.4,88.94-1.86C1290.48,641.07,1285.16,596.84,1275.32,558.86Zm-30.21,84.35c-7.41,16.81-22.44,28.35-37.77,16.71-19.81-15-23.13-45.51-24.47-70.33-.79-14.53-2.15-30.81,3.16-44.49,2.69-6.94,9.7-15.34,15.44-12,9.63,5.6,20.17-.58,23.67-9,8.49,9.44,14,28.26,16.35,36.81C1248.47,586.48,1256.38,617.68,1245.11,643.21Z" transform="translate(-84 -326.24)"/><path d="M1549.47,666.94,1492.8,591.4l62-52.72c17.75-15.09-6.72-38.37-21.82-25.53l-61,51.81a12.81,12.81,0,0,0-1.38-.88q-.24-29.26-.49-58.52c-.09-10.06-6.59-17.08-15.43-18-7-.77-19,4.18-19,14.3q.39,46.68.79,93.38c-7.68,7.53-5.63,16.74.19,22.53q.24,30.22.5,60.44c.09,10.06,6.59,17.08,15.43,18,7,.77,19-4.18,19-14.3l-.53-63.41,51.51,68.67C1534.56,703,1563.46,685.6,1549.47,666.94Z" transform="translate(-84 -326.24)"/><path d="M1665,650.55c-15.86,12.77-36.08,12.82-50.76-4-10.76-12.31-17.81-31.26-19.59-51.18l25.86.9c14.81.51,31.09,3,44.61-7.87,16-12.88,18.48-40,10.19-62.37-6.7-18.09-19.26-30.26-32.53-35.62-30-12.12-59.7,12.46-72.56,52.85a125,125,0,0,0-3.55,13.92l-1.52,0c-7.06-.24-15.19,7.26-15.19,18.61s7.48,17.77,14.29,18.52c1.38,24.28,8.3,48,19.53,66.08,24.12,38.88,65.39,47.44,96.56,22.34C1697.71,668.71,1680.08,638.43,1665,650.55Zm-39.11-126.1c6.62-.41,13.79,3.34,18.59,10.54,3.5,5.24,8.87,18.63,2.73,23.17-4.06,3-10.77,1.45-15,1.31l-21.85-.76-12.37-.44C1603,540.8,1613.1,525.25,1625.92,524.45Z" transform="translate(-84 -326.24)"/><path d="M1838,501.56c-2.76-11.43-8.63-14.29-16.42-13.11-6.55,1-15.44,6.47-13.87,17.62a651.84,651.84,0,0,1,5.66,120q-12.36-21.71-24.73-43.4l-24.06-42.24c-7.35-12.9-14.31-29.15-23.46-39.4-9.51-10.65-25.67-10.49-33.1,7.3-5.92,14.18-4.54,35.51-5.48,51l-7,114.85c-.71,11.52,4.83,19.81,12.43,21.21,6.25,1.14,16.86-4.12,17.57-15.71q2.49-40.86,5-81.72l2.43-39.75.42-6.74,8.23,14.45,23.14,40.61,47.21,82.85c6.4,11.25,25.21,10.16,27.41-8.35C1846.5,620.72,1851.75,558.63,1838,501.56Z" transform="translate(-84 -326.24)"/><path d="M1416.66,559.84c-5.42-20.91-12.34-43.41-27.83-57.5s-37.63-18.85-55.78-8.31c-5,2.89-7.35,6.72-7.91,10.66a48.91,48.91,0,0,0-14.33,8.89c-13.59,12-19,30.79-20.27,49.74-2.53,37.89,2.39,84.53,27,112.48,25.31,28.73,64.91,28.4,88.94-1.86C1431.81,642.05,1426.5,597.82,1416.66,559.84Zm-30.21,84.35C1379,661,1364,672.54,1348.68,660.9c-19.82-15-23.13-45.52-24.48-70.34-.78-14.52-2.14-30.8,3.17-44.49,2.69-6.93,9.7-15.34,15.44-12,9.62,5.6,20.17-.59,23.66-9,8.49,9.44,14,28.26,16.36,36.81C1389.81,587.46,1397.72,618.66,1386.45,644.19Z" transform="translate(-84 -326.24)"/></g></svg>