<?xml version="1.0" encoding="utf-8"?>
<!-- Generator: Adobe Illustrator 23.1.0, SVG Export Plug-In . SVG Version: 6.00 Build 0)  -->
<svg version="1.1" id="Livello_1" xmlns="http://www.w3.org/2000/svg" xmlns:xlink="http://www.w3.org/1999/xlink" x="0px" y="0px"
	 viewBox="0 0 1762.6 370.8" style="enable-background:new 0 0 1762.6 370.8;" xml:space="preserve">
<style type="text/css">
	.st0{fill:#005E79;}
</style>
<g id="Layer_4">
	<path class="st0" d="M145.7,245.4c-6.7-0.1-19.5-0.5-33.4-9.1c-3.6-2.2-25.6-16.3-30.4-44.1c-4.1-25.6,7.2-51.2,28.9-65.3
		c21.9-14.2,44.6-9.9,48.6-9.1c12,2.4,23.1,8.2,31.9,16.7c18.9,18.3,19.7,42,19.8,47.1l22.5-0.2v-78.6c0,0-50.5-89.4-174.8-101.8
		v273.7c0,0,40.7,0.3,86.6,21.2L145.7,245.4z"/>
	<path class="st0" d="M317.4,120.8c-8.8,3.8-16.6,9.5-22.8,16.7c-15.3,17.4-16.6,37.6-16.7,44.1l-21.6-0.5v-78.3
		C322.8,2.5,431,0.9,431,0.9v273.7c-49,1.8-88.9,22.3-88.9,22.3l1.1-51.5c5.8-0.1,24.4-1.2,41-15.2c2.5-2.2,22.7-19.8,22.8-48.6
		c0.1-21.1-10.6-35.4-13.7-39.5C375.7,118.6,344.5,109.9,317.4,120.8L317.4,120.8z"/>
	<path class="st0" d="M249.9,322.9l11.2-17.3c0.9-1.4,0.5-3.4-0.9-4.3c-0.5-0.3-1.1-0.5-1.7-0.5H236c-1.7,0-3.1,1.4-3.1,3.1
		c0,0.6,0.2,1.2,0.5,1.7l11.2,17.3c0.9,1.4,2.9,1.8,4.3,0.9C249.3,323.6,249.6,323.3,249.9,322.9z"/>
	<path class="st0" d="M0,82c0,0,8.3-6.4,23.8-9.6v213c0.3,1.1-3,17.3,14,19.3c0,0,85.9-4.1,145.5,64c0,0-75.3-37.9-183.4-8.4L0,82z"
		/>
	<path class="st0" d="M489.2,82.4c0,0-8.3-6.4-23.8-9.6v213c-0.3,1.1,3,17.3-14,19.3c0,0-85.9-4.1-145.5,64c0,0,75.3-37.9,183.4-8.4
		L489.2,82.4z"/>
</g>
<g id="Layer_6">
	<path class="st0" d="M717.9,336.9C697.5,229.4,692,118.8,691.6,8.5c0-8-27.4-12.2-29.8-4.2c-12.3,39.7-26,93.2-39,139.8L565,17.3
		c-6.7-14.6-27.1-7.7-28.3,7.9c-8.7,109.3-7.7,219.2,3.1,328.4c1,9.7,7.4,15.7,15.2,15.7c6.3,0,16.2-6,15.2-15.7
		c-8.8-88.7-11.1-177.8-7-266.8l50,109.6c5.7,12.5,24.2,9.2,27.8-3.8c7.3-26,16.5-72,23.7-98.1c-1.5,74.8,8.3,180.2,25.8,255.3
		C698,382.2,724.6,372.4,717.9,336.9z"/>
	<path class="st0" d="M834.1,179.9c-8-2.1-15.8,1.7-19.1,10.2L789.8,256l-28.7-84.8c-5.8-17-36.9-12.1-30.3,7.5l35.5,104.9
		c1.5,4.4,5,7.8,9.4,9.3l-22.5,58.6c-3.2,8.5,5.3,16.5,11.8,18.2c8,2.1,15.8-1.7,19.1-10.2c20.6-53.7,41.3-107.5,61.8-161.3
		C849.1,189.7,840.6,181.6,834.1,179.9z"/>
	<path class="st0" d="M1050.5,241c-12.4-29.5-37.1-49.5-62.3-61.9c17.1-7.1,33.3-17.8,43.3-36.1c15.7-28.4,3.8-61.5-14.4-81.5
		c-20.6-22.7-48.4-35-76.1-41.4c-9.7-2.2-19.6-3.6-29.6-3.9c-0.6-8.2-5.8-14-13-14.9c-6.1-0.8-17,3.6-17,12.9v3.6
		C868,19.7,854.7,23.1,842,28c-7,2.6-11.4,11.9-8.1,19.7c3.5,8.3,12.7,10.8,19.9,8.1c8.9-3.4,18-5.9,27.3-7.5
		c-0.3,37.3-0.7,74.6-1,111.9c-4.1,0.4-8.2,0.9-12.2,1.5c-17.5,2.8-15.6,26.8,0.1,29.8c3.9,0.7,7.8,1.4,11.8,1.9l-1,111.8l-4-2.6
		c-6.5-4.2-15.7-4.7-21.3,2.6c-5.1,6.5-3.5,17,2.7,21.1c7.3,4.8,14.7,9.6,22.3,14.2c0,3.9-0.1,7.8-0.1,11.8
		c-0.1,9.3,5.3,15.9,13.1,16.9c6,0.8,16.5-3.4,17-12.4c15.4,7,31.5,11.9,48.3,12.7c31.2,1.4,61.1-12.1,80.7-36.4
		C1058.1,307.6,1063.3,271.4,1050.5,241z M911.3,46.2c26.6,1,52.8,9.4,73.9,26.4c13.1,10.6,29.2,30.9,21.4,52
		c-8,21.8-33.8,29-51,33.8c-5.9,1.6-11.9,3-18,4c-9.1-1.7-18.2-2.7-27.5-3.2L911.3,46.2z M1019.3,306.2c-12,20.8-34.6,32.8-55,33.5
		c-19.5,0.6-38-6.4-55.6-16c0.4-42.8,0.8-85.7,1.2-128.5c9.1-0.1,18.1-0.8,27.1-2.1c7.3,1.6,14.5,3.7,21.5,6.2
		c21.9,8,43.1,20.2,57.6,41.6C1028.8,259.3,1031.5,285,1019.3,306.2L1019.3,306.2z"/>
	<path class="st0" d="M1191.3,232.6c-5.4-20.9-12.3-43.4-27.8-57.5s-37.6-18.9-55.8-8.3c-5,2.9-7.3,6.7-7.9,10.7
		c-5.3,2.1-10.1,5.1-14.3,8.9c-13.6,12-19,30.8-20.3,49.7c-2.5,37.9,2.4,84.5,27,112.5c25.3,28.7,64.9,28.4,88.9-1.9
		C1206.5,314.8,1201.2,270.6,1191.3,232.6z M1161.1,317c-7.4,16.8-22.4,28.3-37.8,16.7c-19.8-15-23.1-45.5-24.5-70.3
		c-0.8-14.5-2.2-30.8,3.2-44.5c2.7-6.9,9.7-15.3,15.4-12c9.6,5.6,20.2-0.6,23.7-9c8.5,9.4,14,28.3,16.3,36.8
		C1164.5,260.2,1172.4,291.4,1161.1,317L1161.1,317z"/>
	<path class="st0" d="M1465.5,340.7l-56.7-75.5l62-52.7c17.8-15.1-6.7-38.4-21.8-25.5l-61,51.8c-0.4-0.3-0.9-0.6-1.4-0.9
		c-0.2-19.5-0.3-39-0.5-58.5c-0.1-10.1-6.6-17.1-15.4-18c-7-0.8-19,4.2-19,14.3c0.3,31.1,0.5,62.2,0.8,93.4
		c-7.7,7.5-5.6,16.7,0.2,22.5c0.2,20.1,0.3,40.3,0.5,60.4c0.1,10.1,6.6,17.1,15.4,18c7,0.8,19-4.2,19-14.3l-0.5-63.4l51.5,68.7
		C1450.6,376.8,1479.5,359.4,1465.5,340.7z"/>
	<path class="st0" d="M1581,324.3c-15.9,12.8-36.1,12.8-50.8-4c-10.8-12.3-17.8-31.3-19.6-51.2l25.9,0.9c14.8,0.5,31.1,3,44.6-7.9
		c16-12.9,18.5-40,10.2-62.4c-6.7-18.1-19.3-30.3-32.5-35.6c-30-12.1-59.7,12.5-72.6,52.8c-1.4,4.6-2.6,9.2-3.6,13.9h-1.5
		c-7.1-0.2-15.2,7.3-15.2,18.6s7.5,17.8,14.3,18.5c1.4,24.3,8.3,48,19.5,66.1c24.1,38.9,65.4,47.4,96.6,22.3
		C1613.7,342.5,1596.1,312.2,1581,324.3z M1541.9,198.2c6.6-0.4,13.8,3.3,18.6,10.5c3.5,5.2,8.9,18.6,2.7,23.2
		c-4.1,3-10.8,1.5-15,1.3l-21.8-0.8L1514,232C1519,214.6,1529.1,199,1541.9,198.2L1541.9,198.2z"/>
	<path class="st0" d="M1754,175.3c-2.8-11.4-8.6-14.3-16.4-13.1c-6.6,1-15.4,6.5-13.9,17.6c5.6,39.7,7.5,79.9,5.7,120
		c-8.2-14.5-16.5-28.9-24.7-43.4l-24.1-42.2c-7.3-12.9-14.3-29.1-23.5-39.4c-9.5-10.6-25.7-10.5-33.1,7.3c-5.9,14.2-4.5,35.5-5.5,51
		l-7,114.8c-0.7,11.5,4.8,19.8,12.4,21.2c6.2,1.1,16.9-4.1,17.6-15.7c1.7-27.2,3.3-54.5,5-81.7l2.4-39.8l0.4-6.7l8.2,14.5l23.1,40.6
		l47.2,82.8c6.4,11.2,25.2,10.2,27.4-8.3C1762.5,294.5,1767.8,232.4,1754,175.3z"/>
	<path class="st0" d="M1332.7,233.6c-5.4-20.9-12.3-43.4-27.8-57.5s-37.6-18.9-55.8-8.3c-5,2.9-7.3,6.7-7.9,10.7
		c-5.3,2.1-10.1,5.1-14.3,8.9c-13.6,12-19,30.8-20.3,49.7c-2.5,37.9,2.4,84.5,27,112.5c25.3,28.7,64.9,28.4,88.9-1.9
		C1347.8,315.8,1342.5,271.6,1332.7,233.6z M1302.5,318c-7.5,16.8-22.5,28.3-37.8,16.7c-19.8-15-23.1-45.5-24.5-70.3
		c-0.8-14.5-2.1-30.8,3.2-44.5c2.7-6.9,9.7-15.3,15.4-12c9.6,5.6,20.2-0.6,23.7-9c8.5,9.4,14,28.3,16.4,36.8
		C1305.8,261.2,1313.7,292.4,1302.5,318L1302.5,318z"/>
</g>
</svg>
