<?xml version="1.0" encoding="utf-8"?>
<!-- Generator: Adobe Illustrator 23.1.0, SVG Export Plug-In . SVG Version: 6.00 Build 0)  -->
<svg version="1.1" id="Layer_6" xmlns="http://www.w3.org/2000/svg" xmlns:xlink="http://www.w3.org/1999/xlink" x="0px" y="0px"
	 viewBox="0 0 1231.8 370.8" style="enable-background:new 0 0 1231.8 370.8;" xml:space="preserve">
<style type="text/css">
	.st0{fill:#005E79;}
</style>
<path class="st0" d="M187.1,336.9c-20.4-107.5-25.9-218.1-26.3-328.4c0-8-27.4-12.2-29.8-4.2c-12.3,39.7-26,93.2-39,139.8L34.2,17.3
	C27.5,2.7,7.1,9.5,5.9,25.2c-8.7,109.3-7.7,219.2,3.1,328.4c1,9.7,7.4,15.7,15.2,15.7c6.3,0,16.2-6,15.2-15.7
	c-8.8-88.7-11.1-177.8-7-266.8l50,109.6c5.7,12.5,24.1,9.2,27.8-3.8c7.3-26,16.5-72,23.7-98.1c-1.5,74.8,8.3,180.2,25.8,255.3
	C167.2,382.2,193.8,372.4,187.1,336.9z"/>
<path class="st0" d="M303.3,179.9c-8-2.1-15.8,1.7-19.1,10.2L259,256l-28.7-84.8c-5.8-17-36.9-12.1-30.3,7.5l35.5,104.9
	c1.5,4.4,5,7.8,9.4,9.3l-22.5,58.6c-3.2,8.5,5.3,16.5,11.8,18.2c8,2.1,15.8-1.7,19.1-10.2c20.6-53.7,41.3-107.5,61.8-161.3
	C318.3,189.7,309.8,181.6,303.3,179.9z"/>
<path class="st0" d="M519.7,241c-12.4-29.5-37.1-49.5-62.3-61.9c17.1-7.1,33.3-17.8,43.3-36.1c15.7-28.4,3.8-61.5-14.4-81.5
	c-20.6-22.7-48.4-35-76.1-41.4c-9.7-2.2-19.6-3.6-29.6-3.9c-0.6-8.2-5.8-14-13-14.9c-6.1-0.8-17,3.6-17,12.9v3.6
	c-13.5,1.9-26.7,5.3-39.5,10.1c-7,2.6-11.4,11.9-8.1,19.7c3.5,8.3,12.7,10.8,19.9,8.1c8.9-3.4,18-5.9,27.3-7.5
	c-0.3,37.3-0.7,74.6-1,111.9c-4.1,0.4-8.2,0.9-12.2,1.5c-17.5,2.8-15.6,26.8,0.1,29.8c3.9,0.7,7.8,1.4,11.8,1.9l-1,111.8l-4-2.6
	c-6.5-4.2-15.7-4.7-21.3,2.6c-5.1,6.5-3.5,17,2.7,21.1c7.3,4.8,14.7,9.6,22.3,14.2c0,3.9-0.1,7.8-0.1,11.8
	c-0.1,9.3,5.3,15.9,13.1,16.9c6,0.8,16.5-3.4,17-12.4c15.4,7,31.5,11.9,48.3,12.7c31.2,1.4,61.1-12.1,80.7-36.4
	C527.3,307.6,532.5,271.4,519.7,241z M380.5,46.2c26.6,1,52.8,9.4,73.9,26.4c13.1,10.6,29.2,30.9,21.5,52c-8,21.8-33.8,29-51,33.8
	c-5.9,1.6-11.9,3-18,4c-9.1-1.7-18.2-2.7-27.5-3.2L380.5,46.2z M488.5,306.2c-12,20.8-34.6,32.8-55,33.5c-19.5,0.6-38-6.4-55.6-16
	c0.4-42.8,0.8-85.7,1.2-128.5c9.1-0.1,18.1-0.8,27.1-2.1c7.3,1.6,14.5,3.7,21.5,6.2c21.9,8,43.1,20.2,57.6,41.6
	C497.9,259.3,500.7,285,488.5,306.2L488.5,306.2z"/>
<path class="st0" d="M660.5,232.6c-5.4-20.9-12.3-43.4-27.8-57.5s-37.6-18.9-55.8-8.3c-5,2.9-7.3,6.7-7.9,10.7
	c-5.3,2.1-10.1,5.1-14.3,8.9c-13.6,12-19,30.8-20.3,49.7c-2.5,37.9,2.4,84.5,27,112.5c25.3,28.7,64.9,28.4,88.9-1.9
	C675.7,314.8,670.3,270.6,660.5,232.6z M630.3,317c-7.4,16.8-22.4,28.3-37.8,16.7c-19.8-15-23.1-45.5-24.5-70.3
	c-0.8-14.5-2.2-30.8,3.2-44.5c2.7-6.9,9.7-15.3,15.4-12c9.6,5.6,20.2-0.6,23.7-9c8.5,9.4,14,28.3,16.3,36.8
	C633.6,260.2,641.6,291.4,630.3,317L630.3,317z"/>
<path class="st0" d="M934.6,340.7L878,265.2l62-52.7c17.8-15.1-6.7-38.4-21.8-25.5l-61,51.8c-0.4-0.3-0.9-0.6-1.4-0.9
	c-0.2-19.5-0.3-39-0.5-58.5c-0.1-10.1-6.6-17.1-15.4-18c-7-0.8-19,4.2-19,14.3c0.3,31.1,0.5,62.2,0.8,93.4
	c-7.7,7.5-5.6,16.7,0.2,22.5c0.2,20.1,0.3,40.3,0.5,60.4c0.1,10.1,6.6,17.1,15.4,18c7,0.8,19-4.2,19-14.3l-0.5-63.4l51.5,68.7
	C919.7,376.8,948.6,359.4,934.6,340.7z"/>
<path class="st0" d="M1050.2,324.3c-15.9,12.8-36.1,12.8-50.8-4c-10.8-12.3-17.8-31.3-19.6-51.2l25.9,0.9c14.8,0.5,31.1,3,44.6-7.9
	c16-12.9,18.5-40,10.2-62.4c-6.7-18.1-19.3-30.3-32.5-35.6c-30-12.1-59.7,12.5-72.6,52.8c-1.4,4.6-2.6,9.2-3.6,13.9h-1.5
	c-7.1-0.2-15.2,7.3-15.2,18.6s7.5,17.8,14.3,18.5c1.4,24.3,8.3,48,19.5,66.1c24.1,38.9,65.4,47.4,96.6,22.3
	C1082.9,342.5,1065.3,312.2,1050.2,324.3z M1011.1,198.2c6.6-0.4,13.8,3.3,18.6,10.5c3.5,5.2,8.9,18.6,2.7,23.2
	c-4.1,3-10.8,1.5-15,1.3l-21.8-0.8l-12.4-0.4C988.2,214.6,998.3,199,1011.1,198.2L1011.1,198.2z"/>
<path class="st0" d="M1223.2,175.3c-2.8-11.4-8.6-14.3-16.4-13.1c-6.6,1-15.4,6.5-13.9,17.6c5.6,39.7,7.5,79.9,5.7,120
	c-8.2-14.5-16.5-28.9-24.7-43.4l-24.1-42.2c-7.4-12.9-14.3-29.1-23.5-39.4c-9.5-10.6-25.7-10.5-33.1,7.3c-5.9,14.2-4.5,35.5-5.5,51
	l-7,114.8c-0.7,11.5,4.8,19.8,12.4,21.2c6.2,1.1,16.9-4.1,17.6-15.7c1.7-27.2,3.3-54.5,5-81.7l2.4-39.8l0.4-6.7l8.2,14.5l23.1,40.6
	l47.2,82.8c6.4,11.2,25.2,10.2,27.4-8.3C1231.7,294.5,1236.9,232.4,1223.2,175.3z"/>
<path class="st0" d="M801.8,233.6c-5.4-20.9-12.3-43.4-27.8-57.5s-37.6-18.9-55.8-8.3c-5,2.9-7.3,6.7-7.9,10.7
	c-5.3,2.1-10.1,5.1-14.3,8.9c-13.6,12-19,30.8-20.3,49.7c-2.5,37.9,2.4,84.5,27,112.5c25.3,28.7,64.9,28.4,88.9-1.9
	C817,315.8,811.7,271.6,801.8,233.6z M771.6,318c-7.5,16.8-22.5,28.3-37.8,16.7c-19.8-15-23.1-45.5-24.5-70.3
	c-0.8-14.5-2.1-30.8,3.2-44.5c2.7-6.9,9.7-15.3,15.4-12c9.6,5.6,20.2-0.6,23.7-9c8.5,9.4,14,28.3,16.4,36.8
	C775,261.2,782.9,292.4,771.6,318L771.6,318z"/>
</svg>
