<?xml version="1.0" encoding="utf-8"?>
<!-- Generator: Adobe Illustrator 23.1.0, SVG Export Plug-In . SVG Version: 6.00 Build 0)  -->
<svg version="1.1" id="Layer_1" xmlns="http://www.w3.org/2000/svg" xmlns:xlink="http://www.w3.org/1999/xlink" x="0px" y="0px"
	 viewBox="0 0 878.9 956" style="enable-background:new 0 0 878.9 956;" xml:space="preserve">
<style type="text/css">
	.st0{fill:#005E79;}
</style>
<path class="st0" d="M264,437.3c-11.9-0.2-34.9-1-59.8-16.3c-6.3-3.9-45.7-29.1-54.4-78.8c-7.4-45.7,12.9-91.5,51.6-116.9
	c39.2-25.4,79.8-17.8,87-16.3c21.5,4.4,41.3,14.7,57.1,29.9c33.7,32.7,35.2,75.1,35.3,84.2l40.2-0.4V182.2c0,0-90.3-160-312.5-182.1
	v489.5c0,0,72.8,0.6,154.9,38L264,437.3z"/>
<path class="st0" d="M571.1,214.5c-10.7,4.3-26.4,13.6-40.8,29.9c-27.3,31-29.6,67.2-29.9,78.8l-38.7-1V182.1
	C580.8,2.9,774.4,0,774.4,0v489.5c-87.6,3.2-159,39.9-159,39.9l2-92c10.4-0.2,43.7-2.1,73.4-27.2c4.5-3.8,40.6-35.3,40.8-87
	c0.1-37.7-18.9-63.4-24.5-70.7c-8.8-11.6-27.1-31.1-57.1-40.8C611.6,199.4,579.3,211.2,571.1,214.5z"/>
<path class="st0" d="M448.3,579.1l24.6-37.8c0.9-1.4,0.5-3.3-0.9-4.3c-0.5-0.3-1.1-0.5-1.7-0.5h-49.2c-1.7,0-3.1,1.4-3.1,3.1
	c0,0.6,0.2,1.2,0.5,1.7l24.6,37.8c0.9,1.4,2.8,1.9,4.3,0.9C447.7,579.8,448.1,579.5,448.3,579.1z"/>
<path class="st0" d="M3.4,145.1c0,0,14.8-11.4,42.6-17.2v380.9c0.6,1.9-5.4,31,25.1,34.5c0,0,153.7-7.4,260.3,114.5
	c0,0-134.7-67.9-328-15.1L3.4,145.1z"/>
<path class="st0" d="M878.4,145.8c0,0-14.8-11.4-42.6-17.2v380.9c-0.6,1.9,5.4,31-25.1,34.5c0,0-153.7-7.4-260.3,114.5
	c0,0,134.7-67.9,328-15.1V145.8z"/>
<path class="st0" d="M133.5,931.1c-14.5-78.9-18.5-160-18.8-240.9c0-5.8-19.5-8.9-21.3-3.1c-8.8,29.2-18.5,68.3-27.8,102.5l-41.2-93
	C19.6,686,5.1,691,4.2,702.5c-6.2,80.2-5.5,160.8,2.2,240.8c0.7,7.1,5.3,11.5,10.8,11.5c4.5,0,11.5-4.4,10.8-11.5
	c-6.3-65-7.9-130.5-5-195.7L58.7,828c4.1,9.2,17.2,6.8,19.8-2.8c5.2-19.1,11.7-52.9,16.9-72c-1.1,54.9,5.9,132.2,18.4,187.2
	C119.3,964.4,138.3,957.2,133.5,931.1z"/>
<path class="st0" d="M216.4,816c-5.7-1.5-11.3,1.2-13.6,7.5c-6,16.1-12,32.2-18,48.3c-6.8-20.7-13.7-41.4-20.5-62.2
	c-4.1-12.5-26.4-8.8-21.6,5.5L168,892c1,3.2,3.5,5.7,6.7,6.8c-5.3,14.3-10.7,28.7-16,43c-2.3,6.2,3.8,12.1,8.4,13.3
	c5.7,1.5,11.3-1.2,13.6-7.5l44.1-118.3C227.1,823.1,221,817.2,216.4,816z"/>
<path class="st0" d="M370.8,860.8c-8.9-21.6-26.5-36.3-44.5-45.4c12.2-5.2,23.7-13.1,30.9-26.5c11.2-20.8,2.7-45.1-10.3-59.8
	c-14.7-16.7-34.5-25.6-54.3-30.3c-6.9-1.6-14-2.6-21.1-2.8c-0.5-6-4.1-10.2-9.3-11c-4.3-0.6-12.1,2.6-12.2,9.5c0,0.9,0,1.7,0,2.6
	c-9.6,1.4-19.1,3.9-28.1,7.5c-5,1.9-8.1,8.7-5.8,14.4c2.3,5.6,8.6,8.2,14.2,5.9c0,0,0,0,0,0c6.3-2.5,12.8-4.3,19.5-5.5l-0.7,82.1
	c-2.9,0.3-5.8,0.7-8.7,1.1c-12.5,2-11.1,19.7,0.1,21.9c2.8,0.5,5.6,1,8.4,1.4l-0.7,82l-2.9-1.8c-4.6-3.1-11.2-3.4-15.2,1.9
	c-3.6,4.8-2.5,12.5,1.9,15.5c5.2,3.5,10.5,7,15.9,10.4c0,2.9,0,5.8-0.1,8.6c-0.1,6.8,3.8,11.6,9.3,12.4c4.2,0.6,11.8-2.5,12.1-9.1
	c11,5.1,22.4,8.7,34.5,9.3c20.8,1,42.5-7.7,57.6-26.7C376.2,909.7,379.9,883,370.8,860.8z M271.5,717.9c19,0.7,37.6,6.9,52.8,19.4
	c9.4,7.7,20.8,22.7,15.3,38.2c-5.7,16-24.1,21.3-36.4,24.8c-4.2,1.2-8.5,2.2-12.8,3c-6.5-1.2-13-2-19.6-2.3
	C271,773.3,271.2,745.6,271.5,717.9z M348.6,908.6c-8.6,15.3-24.7,24.1-39.2,24.6c-13.9,0.5-27.1-4.7-39.7-11.7l0.8-94.3
	c6.5-0.1,12.9-0.6,19.3-1.6c5.2,1.2,10.4,2.7,15.4,4.6c15.7,5.9,30.8,14.9,41.1,30.5C355.3,874.2,357.3,893.1,348.6,908.6
	L348.6,908.6z"/>
<path class="st0" d="M471.3,854.6c-3.9-15.3-8.8-31.8-19.8-42.2s-26.8-13.8-39.8-6.1c-3.5,2.1-5.2,4.9-5.6,7.8
	c-3.8,1.6-7.2,3.8-10.2,6.5c-9.7,8.8-13.6,22.6-14.5,36.5c-1.8,27.8,1.7,62,19.3,82.5c18.1,21.1,46.3,20.8,63.5-1.4
	C482.1,914.9,478.3,882.5,471.3,854.6z M449.7,916.5c-5.3,12.3-16,20.8-27,12.3c-14.1-11-16.5-33.4-17.5-51.6
	c-0.6-10.7-1.5-22.6,2.2-32.6c1.9-5.1,6.9-11.2,11-8.8c6.9,4.1,14.4-0.4,16.9-6.6c6,6.9,10,20.7,11.7,27
	C452.1,874.9,457.8,897.8,449.7,916.5z"/>
<path class="st0" d="M666.9,933.9l-40.4-55.4l44.3-38.7c12.7-11.1-4.8-28.2-15.6-18.7l-43.5,38c-0.3-0.2-0.7-0.4-1-0.6
	c-0.1-14.3-0.2-28.6-0.3-42.9c-0.1-7.4-4.7-12.5-11-13.2c-5-0.6-13.6,3.1-13.5,10.5c0.2,22.8,0.4,45.7,0.6,68.5
	c-5.5,5.5-4,12.3,0.1,16.5l0.4,44.3c0.1,7.4,4.7,12.5,11,13.2c5,0.6,13.6-3.1,13.5-10.5l-0.4-46.5l36.8,50.4
	C656.2,960.4,676.9,947.6,666.9,933.9z"/>
<path class="st0" d="M749.3,921.9c-11.3,9.4-25.7,9.4-36.2-2.9c-7.7-9-12.7-22.9-14-37.5l18.5,0.7c10.6,0.4,22.2,2.2,31.8-5.8
	c11.4-9.5,13.2-29.3,7.3-45.8c-4.8-13.3-13.8-22.2-23.2-26.1c-21.4-8.9-42.6,9.1-51.8,38.8c-1,3.4-1.9,6.8-2.5,10.2h-1.1
	c-5-0.2-10.8,5.3-10.8,13.7s5.3,13,10.2,13.6c1,17.8,5.9,35.2,13.9,48.5c17.2,28.5,46.7,34.8,68.9,16.4
	C772.7,935.2,760.1,913,749.3,921.9z M721.4,829.4c4.7-0.3,9.8,2.5,13.3,7.7c2.5,3.8,6.3,13.7,2,17c-2.9,2.2-7.7,1.1-10.7,1
	l-15.6-0.6l-8.8-0.3C705.1,841.4,712.3,830,721.4,829.4z"/>
<path class="st0" d="M872.7,812.6c-2-8.4-6.2-10.5-11.7-9.6c-4.7,0.7-11,4.8-9.9,12.9c4,29.2,5.3,58.6,4,88
	c-5.9-10.6-11.8-21.2-17.7-31.8l-17.2-31c-5.2-9.5-10.2-21.4-16.7-28.9c-6.8-7.8-18.3-7.7-23.6,5.4c-4.2,10.4-3.2,26-3.9,37.4
	l-5,84.2c-0.5,8.5,3.5,14.5,8.9,15.6c4.5,0.8,12-3,12.5-11.5c1.2-20,2.4-40,3.6-60l1.7-29.2c0.1-1.7,0.2-3.3,0.3-4.9l5.9,10.6
	c5.5,9.9,11,19.9,16.5,29.8l33.7,60.8c4.6,8.2,18,7.5,19.6-6.1C878.9,900,882.6,854.5,872.7,812.6z"/>
<path class="st0" d="M572.1,855.3c-3.9-15.3-8.8-31.8-19.9-42.2s-26.8-13.8-39.8-6.1c-3.5,2.1-5.2,4.9-5.7,7.8
	c-3.8,1.6-7.2,3.8-10.2,6.5c-9.7,8.8-13.6,22.6-14.5,36.5c-1.8,27.8,1.7,62,19.3,82.5c18.1,21.1,46.3,20.8,63.5-1.4
	C582.9,915.7,579.1,883.2,572.1,855.3z M550.6,917.2c-5.3,12.3-16,20.8-27,12.3c-14.1-11-16.5-33.4-17.5-51.6
	c-0.6-10.7-1.5-22.6,2.3-32.6c1.9-5.1,6.9-11.2,11-8.8c6.9,4.1,14.4-0.4,16.9-6.6c6.1,6.9,10,20.7,11.7,27
	C553,875.6,558.6,898.5,550.6,917.2z"/>
</svg>
