<?xml version="1.0" encoding="utf-8"?>
<!-- Generator: Adobe Illustrator 23.1.0, SVG Export Plug-In . SVG Version: 6.00 Build 0)  -->
<svg version="1.1" id="Layer_2" xmlns="http://www.w3.org/2000/svg" xmlns:xlink="http://www.w3.org/1999/xlink" x="0px" y="0px"
	 viewBox="0 0 850.3 836" style="enable-background:new 0 0 850.3 836;" xml:space="preserve">
<style type="text/css">
	.st0{fill:#005E79;}
</style>
<path class="st0" d="M425.2,0C190.3,0,0,190.4,0,425.2C0.1,591.8,97.4,743,249,812.2c23,10.5,46,18.7,71.7,16.4
	c5.4-0.5,11.1-1.5,15.3-4.9c9.2-7.4,2.9-17.2-4-23.3c-19.6-17.5-43.3-31.3-66.6-43.3c-14-7.2-27.5-15.2-40.6-23.9
	c-25.5-17-48.9-37-69.7-59.5c-20.4-22.1-38-46.6-52.4-73c-14.5-26.6-25.6-54.8-33-84.2C62,486.3,58.2,455.2,58.2,424
	C58.2,220.7,223,55.9,426.3,55.9S794.4,220.7,794.4,424c0,127.5-66,245.9-174.4,313c-12,7.4-24.6,13.6-36.9,20.3
	c-5.3,3-11.5,4.7-17.4,6.3c-6.8,2-13.7,3.7-20.6,5.1c-14.4,2.4-29.3,0.1-42.3-6.7c-6.4-3.2-12-7.7-16.4-13.3c-3.1-4-9-13.5-7.2-19
	c0.8-2.3,5-3.1,7.3-3.9c5.6-2,12.1-3.2,17.3-6c-0.2,0-0.5,0-0.7,0.1c-12.3,2.2-32,14.1-44.3,16.3c-27.8,5-42.1,2-69.9,7
	c-9.4,1.7-34.9-8.7-44.3-7c0,0,25.7,30.3,41.9,46.6c-0.1,0,9.4,9.3,9.3,9.3c12.7,13.8,44.8,33,74.5,39.6c41.9,9.3,73.8,0.8,76.9,0
	c181.8-47,302.8-211.7,302.8-406.5C850.3,190.4,660,0,425.2,0z"/>
<path class="st0" d="M589.5,414.9l-0.4-1c11.9,40.9,16.2,68.3,16.2,68.3c8.1,54-7.6,101.8-7.6,101.8c-3.7,21-10.3,41.3-19.7,60.4
	c-6.3,12.7-14.1,24.5-23.4,35.2c-2.6,2.9-5.2,5.7-8.1,8.3c-2.5,2.4-4.7,5.1-7.2,7.5c-4.2,3.9-9.2,6.8-13.4,10.6
	c-3.8,3.2-7.8,6-12,8.5c-8.1,5.2-16.7,9.6-25.6,13.2c-17,6.9-34.8,11.6-53,14c-15.3,2.1-30.8,3.1-46.2,2.8
	c-9.5-0.1-19.1-0.7-28.5-1.8c-1.4-0.1-2.8-0.2-4.2-0.5c-72.8-22-107.2-82.4-107.2-82.4c-36.3-55.8-35-128.5-35-128.5
	c-0.5-76,20.5-114.2,20.5-114.2c77.3,25.5,109.3-16.2,106.8-34.2c-14.4,8-30.1,13.2-46.4,15.5c-11.6,1.6-31.8,4.1-55.3-4.4
	c-8.1-2.9-25.2-9.4-39.8-26.5c-14.9-17.5-18.5-36.1-19.9-44.2c-6.3-32.9,5.5-66.7,31-88.4c24.1-21.2,51.2-23.7,59.7-24.3
	c13-1,27.5,1.8,34.6,3.4v2.2c2.3-7.4,5.8-15.1,11-26.5c6.5-14.9,14.7-29,24.3-42c9.7-13,18.8-25.2,35.4-35.4
	c7.5-4.6,20.2-9,33.9-9.6c11.2-0.5,16.8,1.3,21.3,3c11.9,4.6,19.5,11.3,26.5,17.7c7.4,6.7,11.9,12.4,17.7,19.9
	c17.1,22,30.6,46.6,39.8,72.9v-2.2c10.9-2.2,22.1-3,33.2-2.2c8.5,0.6,35.6,3.1,59.7,24.3c25.4,21.8,37.3,55.5,30.9,88.4
	c-1.4,8.1-4.9,26.7-19.9,44.2c-14.6,17.1-31.7,23.6-39.8,26.5c-23.5,8.5-43.7,6-55.3,4.4c-20-2.8-38-10.7-48.6-16.6
	C472.4,401.7,515.3,447,589.5,414.9z"/>
</svg>
